<svg xmlns="http://www.w3.org/2000/svg" width="140" height="140" viewBox="0 0 140 140" fill="none"><path fill-rule="evenodd" clip-rule="evenodd" d="M109.679 93.6996V110.358H103.548V93.6996H109.679ZM89.9777 97.3594C93.302 97.3594 96.0271 99.3946 96.0271 101.892C96.0271 104.399 93.302 106.434 89.9777 106.434C86.6533 106.434 83.929 104.399 83.929 101.892C83.929 99.3946 86.6533 97.3594 89.9777 97.3594ZM91.5944 93.6996L86.5713 88.0315H94.0646L100.967 97.3594C101.64 98.3131 102.148 99.9393 102.221 101.574C102.467 106.615 96.7083 110.766 89.9777 110.766C83.247 110.766 77.7343 106.634 77.7343 101.574C77.7336 96.506 82.6746 92.5455 91.5944 93.6996ZM62.784 103.028C62.784 105.289 64.8816 106.434 66.6073 106.434C68.333 106.434 70.6317 105.162 70.6317 103.028V93.6996H76.4349V103.028C76.4349 109.495 70.7131 110.793 66.6073 110.793C62.5109 110.793 56.6707 109.495 56.6707 103.028V93.6996H62.784V103.028ZM44.3808 88.0315L58.4683 110.357H51.4376L48.958 106.434H35.3347L32.7636 110.357H25.5884L38.704 90.1748L36.7161 88.0315H44.3808ZM46.4523 102.419H37.9232L42.247 95.779L46.4523 102.419Z" fill="#CC2229"></path><path fill-rule="evenodd" clip-rule="evenodd" d="M108.933 70.9006C110.659 71.0371 112.276 70.8635 113.965 70.4735C114.921 70.2038 115.857 69.8637 116.763 69.4559C117.637 69.0128 118.475 68.5026 119.27 67.93C120.04 67.3286 120.762 66.6696 121.432 65.9588C122.073 65.2219 122.659 64.4388 123.185 63.6157C123.82 62.5342 124.302 61.4448 124.711 60.2551C124.984 59.2651 125.192 58.3028 125.32 57.2939C125.375 56.5044 125.393 55.7404 125.375 54.9596C125.284 53.661 125.056 52.4713 124.711 51.2184C124.465 50.5176 124.192 49.8266 123.893 49.147C123.212 47.8026 122.413 46.6492 121.432 45.5045C120.759 44.7994 120.037 44.1435 119.27 43.5421C118.276 42.8225 117.211 42.2074 116.091 41.7067C115.163 41.3412 114.21 41.0438 113.239 40.8169C111.864 40.5732 110.466 40.4698 109.07 40.5083C106.726 40.6986 104.373 41.4162 102.393 42.7061C102.258 42.8056 102.104 42.9327 101.967 43.0322C103.529 45.3854 104.564 48.128 105.191 50.8618C105.373 51.7428 105.518 52.6252 105.609 53.5142C105.908 56.3381 105.627 59.1998 104.846 61.9249C104.182 64.1684 103.156 66.4389 101.803 68.3556C103.856 69.8293 106.427 70.7183 108.933 70.9006ZM97.6979 50.6816C97.4404 49.9784 97.1372 49.2927 96.79 48.6291C95.9722 50.1732 95.3825 51.8169 95.1181 53.552C94.9735 54.5412 94.9096 55.5414 94.9735 56.5495C95.1094 58.7023 95.8008 60.863 96.8264 62.7623C97.48 61.4455 97.971 60.1454 98.2702 58.7023C98.77 56.2314 98.6152 53.6152 97.8693 51.1988L97.6979 50.6816ZM85.7625 70.756C87.6793 70.4379 89.4057 69.7922 91.1038 68.8655L91.7567 68.4754C91.3936 67.9845 91.0755 67.4216 90.7755 66.8943C89.7535 65.0861 88.9775 63.1496 88.468 61.1361C88.1791 59.9627 87.9757 58.7699 87.8594 57.567C87.7141 55.751 87.7875 53.9241 88.078 52.1255C88.6322 48.8652 89.8407 45.8045 91.7008 43.0794C90.9113 42.5615 90.0935 42.08 89.2219 41.7168C87.7417 41.0988 86.1794 40.6811 84.5721 40.5627C81.2289 40.3085 77.9598 41.0806 75.1439 42.8978C77.142 45.904 78.3774 49.428 78.8771 52.9978C78.9861 54.0786 79.0587 55.1049 79.05 56.1943C78.9955 58.3297 78.6324 60.4098 77.9961 62.4529C77.3148 64.6238 76.3067 66.6139 75.072 68.5205C78.1966 70.5737 82.0656 71.3371 85.7625 70.756ZM71.0199 50.5458C70.7565 49.8173 70.4316 49.1124 70.0489 48.4388C69.4686 49.5559 68.9681 50.7092 68.6413 51.9178C68.3232 53.1613 68.1242 54.4432 68.1242 55.7324C68.1329 56.5502 68.2055 57.3767 68.3602 58.1757C68.7012 59.8332 69.2859 61.431 70.0954 62.917C70.6031 61.9263 71.0396 60.8913 71.3388 59.8193C71.6112 58.7378 71.8116 57.6934 71.8755 56.5858C71.9387 55.0773 71.8298 53.5702 71.4841 52.1074C71.3664 51.5895 71.1935 51.0455 71.0199 50.5458ZM61.6302 50.2916C62.22 47.9754 63.1649 45.8321 64.4178 43.797L64.9001 43.0801L64.9727 42.9712C63.2368 41.8991 61.3753 41.1547 59.3685 40.7639C57.9152 40.4821 56.3348 40.4545 54.8625 40.5729C52.8107 40.8642 50.8569 41.5004 49.0956 42.5899C48.8865 42.7264 48.6591 42.8804 48.4688 43.0344C50.0413 45.3876 51.0661 48.1301 51.6936 50.8639C52.0117 52.3215 52.1912 53.8059 52.2297 55.2973C52.2463 56.6501 52.1492 58.002 51.9391 59.3385C51.787 60.211 51.5896 61.075 51.3479 61.9271C50.6855 64.1706 49.6585 66.441 48.3054 68.3578C53.0918 71.783 60.0861 71.8186 64.9277 68.4667C63.0749 65.6966 61.8118 62.6534 61.2584 59.3654C60.8921 57.0957 60.8708 54.7836 61.1952 52.5076C61.3114 51.7624 61.4567 51.0274 61.6302 50.2916ZM44.1081 50.4362C43.8723 49.8179 43.5995 49.2145 43.291 48.6291C42.4826 50.1732 41.8914 51.8169 41.6285 53.552C41.4825 54.5412 41.4186 55.5414 41.4825 56.5495C41.6198 58.7023 42.3098 60.863 43.3266 62.7623C43.8176 61.7724 44.2352 60.8006 44.5257 59.7285C45.3799 56.7579 45.2164 53.3348 44.1081 50.4362ZM34.6799 59.8193C34.3486 58.0198 34.2299 56.1876 34.3262 54.3604C34.5876 50.321 35.9269 46.4255 38.2047 43.0794C37.4232 42.5615 36.5966 42.08 35.7338 41.7168C34.2441 41.0988 32.6818 40.6811 31.0832 40.5627C29.8935 40.472 28.7126 40.5366 27.5316 40.6811C26.7878 40.8173 26.0511 40.9901 25.3244 41.199C24.1521 41.5913 23.0231 42.1026 21.955 42.725C21.1333 43.2487 20.3529 43.8346 19.6207 44.4775C18.9078 45.1456 18.2487 45.8688 17.6495 46.6405C16.9299 47.6325 16.3178 48.6981 15.8235 49.8195C15.4533 50.7463 15.1527 51.6995 14.9244 52.671L14.7973 53.4249C14.6646 54.4487 14.6131 55.4813 14.6433 56.5132C14.689 57.2852 14.7973 58.0391 14.9251 58.8018C15.2795 60.2914 15.7524 61.6176 16.4605 62.9802C16.8284 63.6157 17.2256 64.2337 17.6509 64.8323C18.4135 65.8143 19.2314 66.6582 20.1668 67.476C20.9386 68.0809 21.7521 68.6304 22.6014 69.1204C23.7185 69.684 24.8443 70.1372 26.0528 70.4735C26.7791 70.6456 27.5425 70.7916 28.287 70.8817C29.1222 70.9362 29.9306 70.9725 30.7571 70.9267C32.9692 70.7678 35.1262 70.1622 37.0978 69.1465L37.6149 68.8647L38.2599 68.4747C37.6512 67.6387 37.1421 66.6582 36.67 65.7314C35.7531 63.8554 35.0841 61.868 34.6799 59.8193ZM123.548 73.6613C122.671 74.2891 121.765 74.8743 120.832 75.4146C119.861 75.9059 118.866 76.3514 117.853 76.7495C116.808 77.104 115.754 77.4126 114.673 77.6581L113.574 77.8579C111.649 78.0939 109.714 78.1941 107.788 77.985C105.476 77.7269 103.216 77.1206 101.085 76.1866C99.5761 75.5021 98.1398 74.6683 96.7973 73.6976C95.2989 74.742 93.7541 75.6419 92.0654 76.3501C89.7465 77.3046 87.2904 77.8837 84.7893 78.0656C83.0436 78.1664 81.2921 78.0751 79.5664 77.7932C76.1056 77.1672 72.8459 75.8228 69.9755 73.7702C68.7495 74.6331 67.4683 75.4051 66.097 76.0312C63.2637 77.3211 60.2655 78.03 57.1504 78.1026C55.0978 78.1295 53.0627 77.9116 51.0639 77.3945C48.2488 76.658 45.6776 75.4051 43.299 73.6969C42.0447 74.5684 40.7823 75.3318 39.4111 75.9767C36.5676 77.2935 33.4619 78.0387 30.3279 78.1026C29.0198 78.1208 27.7393 78.0118 26.4494 77.8571C25.3532 77.6609 24.2677 77.4093 23.197 77.1032C22.1618 76.751 21.1434 76.3511 20.1451 75.9048C19.1825 75.414 18.2458 74.8742 17.3386 74.2873C16.1696 73.4564 15.0615 72.5428 14.023 71.5535C13.2793 70.7732 12.5732 69.9579 11.9073 69.1102C11.2838 68.2328 10.7018 67.3266 10.1634 66.3946C9.67012 65.421 9.21867 64.4267 8.81031 63.4145C8.45673 62.3703 8.15375 61.3096 7.90243 60.2362C7.70899 59.1263 7.56962 58.0077 7.4848 56.8843L7.44849 55.7396L7.4848 54.5863L7.56615 53.4511L7.71214 52.3333L7.90243 51.2344L8.16608 50.1442L8.4566 49.091L8.81031 48.056L9.21922 47.0298L9.67316 46.0398L10.1634 45.0767L10.7082 44.1318L11.2805 43.2319L11.9073 42.3516L12.5704 41.5164C13.2786 40.6906 14.023 39.9185 14.7951 39.1726C15.6148 38.4716 16.4634 37.805 17.3386 37.1745C18.2503 36.5951 19.1866 36.0554 20.1451 35.557C21.1435 35.1081 22.1619 34.7048 23.197 34.3485C24.2698 34.0485 25.3498 33.7848 26.4494 33.6047C28.0574 33.4043 29.6735 33.2953 31.291 33.3868C33.3435 33.5408 35.3416 33.9403 37.2677 34.6128C39.1413 35.2983 40.9254 36.2071 42.5814 37.3198L42.9533 37.5834L43.2532 37.8013C46.4599 35.4125 50.302 33.9149 54.2808 33.4689C56.6601 33.2423 59.0671 33.3411 61.4102 33.8502C63.5041 34.3128 65.5243 35.0616 67.4138 36.0756C68.3224 36.576 69.1853 37.1389 70.03 37.7287C71.4565 36.6567 73.0551 35.7669 74.6994 35.0769C77.8509 33.7413 81.3662 33.1871 84.7907 33.3876C85.8904 33.4689 87.0074 33.6236 88.0787 33.8502C90.6435 34.4108 93.0904 35.4162 95.3084 36.8208C95.7899 37.1288 96.2896 37.4658 96.7436 37.8013C98.9535 36.1736 101.436 34.9527 104.074 34.1959C106.072 33.6236 108.098 33.3694 110.178 33.3418L111.358 33.3694L112.53 33.4609L113.674 33.6062C114.788 33.7991 115.891 34.0473 116.981 34.3499C118.029 34.6952 119.056 35.0987 120.059 35.5585C121.028 36.0443 121.968 36.5843 122.875 37.176C123.747 37.802 124.583 38.4557 125.391 39.174C126.165 39.9069 126.896 40.6834 127.581 41.4997C128.241 42.3429 128.853 43.2221 129.415 44.1333L129.942 45.0782L130.433 46.0413L130.86 47.0312L131.25 48.0481L131.587 49.0925L131.876 50.1456C132.122 51.246 132.313 52.326 132.449 53.4525C132.53 54.5972 132.557 55.7411 132.53 56.8858C132.447 58.0098 132.305 59.1287 132.103 60.2377L131.849 61.3279L131.55 62.3817L131.195 63.416C130.799 64.4321 130.351 65.4268 129.851 66.396C129.135 67.6411 128.328 68.8312 127.435 69.9564C126.735 70.7763 125.992 71.5584 125.21 72.2994L124.392 72.9996L123.548 73.6613Z" fill="#DCD9D9"></path><path fill-rule="evenodd" clip-rule="evenodd" d="M43.6449 68.294C40.3388 64.9871 38.4591 60.7549 38.4591 55.7405C38.4591 50.9629 40.248 46.7118 43.2723 43.4427C46.2429 46.6849 48.0776 51.0086 48.0776 55.7405C48.0776 59.0285 47.442 61.7994 45.8972 64.4598C48.1959 57.1575 47.5321 52.016 44.7169 47.9378C45.2253 48.6554 46.6061 52.6791 46.3518 55.7398C46.3518 59.128 45.3161 62.2802 43.5534 64.8956L43.6449 68.294ZM131.869 55.7412C131.869 67.6861 122.122 77.4128 110.187 77.4128C105.191 77.4128 100.577 75.7139 96.8077 72.8269C93.0301 75.6791 88.3876 77.4128 83.347 77.4128C78.3689 77.4128 73.7728 75.7139 69.9859 72.9082C66.1982 75.7423 61.6304 77.4128 56.6886 77.4128C51.6931 77.4128 47.0796 75.7139 43.3093 72.8269C39.5398 75.6791 34.8893 77.4128 29.8574 77.4128C17.9126 77.4128 8.16699 67.6853 8.16699 55.7412C8.16699 43.7971 17.9126 34.0508 29.8574 34.0508C34.8893 34.0508 39.5398 35.7867 43.2629 38.6926C46.9968 35.7867 51.6561 34.0508 56.6886 34.0508C61.7205 34.0508 66.3079 35.7765 70.0403 38.6106C73.8435 35.6496 78.5271 34.0447 83.347 34.0508C88.3876 34.0508 93.0301 35.7867 96.7539 38.6926C100.495 35.7867 105.155 34.0508 110.187 34.0508C122.576 34.0508 131.869 43.7702 131.869 55.7412ZM110.187 36.322C106.517 36.322 103.139 37.3664 100.223 39.1923C104.991 35.3857 112.648 34.5599 121.441 37.63C118.271 35.7046 114.184 34.4604 110.187 34.4604C105.109 34.4604 100.404 36.3038 96.735 39.3013L96.7895 41.7446C93.2923 38.3934 88.551 36.3227 83.3463 36.3227C79.8258 36.3167 76.3762 37.3122 73.4002 39.1931C78.1517 35.3865 85.8179 34.5607 94.6004 37.6308C91.4301 35.7053 87.3519 34.4612 83.3463 34.4612C78.2861 34.4612 73.7096 36.1687 70.0396 39.1749V41.7453C66.5526 38.3941 61.8926 36.3234 56.6879 36.3234C53.1647 36.3172 49.7122 37.3127 46.7332 39.1938C51.4919 35.3872 59.1494 34.5614 67.9413 37.6315C64.771 35.7061 60.6935 34.4619 56.6879 34.4619C51.619 34.4619 46.9147 36.3053 43.236 39.3027L43.2912 41.746C39.8035 38.3948 35.0614 36.3241 29.8574 36.3241C26.3316 36.319 22.8767 37.3144 19.8939 39.1945C24.6621 35.3879 32.3189 34.5621 41.1108 37.6322C37.9412 35.7068 33.8536 34.4626 29.8574 34.4626C18.1399 34.4626 8.5759 44.0361 8.5759 55.7434C8.5759 59.8129 9.9922 64.263 12.3992 67.8509C7.54019 58.2688 9.9922 50.9839 13.0906 46.4518C11.9002 49.113 10.3474 52.6733 10.4294 55.7434C10.7294 66.3075 19.1669 75.1634 29.8581 75.1634C35.28 75.1634 39.8579 73.238 43.4553 69.6042C47.0157 73.3193 51.1854 75.1634 56.6894 75.1634C59.188 75.164 61.6618 74.6671 63.9664 73.7018C66.2711 72.7365 68.3605 71.3221 70.113 69.5411C73.5753 73.0106 78.0885 75.1634 83.3477 75.1634C88.7798 75.1634 93.349 73.238 96.9449 69.6042C100.515 73.3193 104.675 75.1634 110.188 75.1634C120.879 75.1634 129.598 66.4346 129.598 55.7434C129.598 45.1233 120.806 36.322 110.187 36.322ZM67.4787 68.2126C64.486 70.8142 60.654 72.2466 56.6886 72.2458C52.792 72.1812 51.0474 71.5006 49.3856 70.6835C54.1451 74.3892 64.718 72.954 67.4147 70.6283C64.4725 72.7448 60.7748 73.9628 56.6879 73.9628C51.6735 73.9628 47.45 72.1282 44.1264 68.8489C47.5415 65.3699 49.2672 61.0011 49.2672 55.742C49.2672 50.628 47.2605 45.9513 43.9993 42.4723C46.4971 39.9651 51.4382 37.5131 56.6886 37.5131C61.4663 37.5131 65.9621 39.684 69.2327 42.7171H66.825C63.7462 46.4046 62.0829 50.5924 62.0829 55.742C62.0829 59.8115 63.5 64.2615 65.8982 67.8495C61.0392 58.2673 63.5 50.9825 66.5889 46.4503C65.3985 49.1115 63.8638 52.6813 63.9365 55.742C64.0461 60.4927 66.1982 64.8978 69.1136 68.3129L67.4787 68.2126ZM70.0309 67.904C66.9608 64.6341 65.1356 60.5189 65.1356 55.7412C65.1356 50.9636 66.9971 46.5948 70.0396 43.3337C73.1373 46.5854 74.9088 50.8997 74.9088 55.7412C74.9088 59.0292 74.2725 61.8001 72.7284 64.4605C75.0264 57.1583 74.3626 52.0167 71.5474 47.9385C72.0566 48.6561 73.4373 52.6798 73.1918 55.7405C73.1918 59.229 72.0929 62.4893 70.2306 65.16L70.0309 67.904ZM70.9758 68.8656C74.1919 65.4323 76.1072 60.8457 76.1072 55.7405C76.1072 50.6266 74.2369 46.2128 70.9758 42.7156C74.2457 39.501 78.4241 37.5117 83.347 37.5117C88.0978 37.5117 92.5479 39.3005 95.7908 42.3075L93.702 42.3169C90.5969 46.1013 88.9016 50.846 88.9054 55.7412C88.9054 59.8107 90.3225 64.2608 92.7294 67.8488C87.8705 58.2666 90.3232 50.9817 93.4202 46.4496C92.2297 49.1108 90.6849 52.6624 90.7582 55.7412C90.8672 60.8276 92.5755 65.0154 95.8627 68.53L93.983 68.331C91.1127 70.7569 87.3889 72.2466 83.3463 72.2466C79.4496 72.1819 77.8598 71.4106 76.0527 70.6843C80.8028 74.3899 91.3756 72.9547 94.0731 70.6291C91.1301 72.7455 87.4332 73.9635 83.3463 73.9635C78.106 73.9621 74.3459 71.8819 70.9758 68.8656ZM74.1004 68.7029C76.6977 70.5739 79.9312 71.6641 83.3463 71.6641C86.7708 71.6641 90.122 70.5099 92.7469 68.6666C90.1583 65.0786 88.4958 60.492 88.4958 55.7412C88.4958 50.973 90.0494 46.5498 92.6917 42.9161C89.9965 40.8928 86.7156 39.8026 83.3456 39.8104C79.9305 39.8104 76.7689 40.8548 74.1716 42.7164C76.6686 46.2411 78.3587 51.0457 78.3587 55.7412C78.3602 60.492 76.689 65.1149 74.1004 68.7029ZM70.0955 64.316C71.7431 61.76 72.6168 58.7822 72.6115 55.7412C72.6115 52.5259 71.7203 49.5197 70.0403 47.0945C68.4236 49.6468 67.4249 52.5898 67.4249 55.7412C67.4249 58.8295 68.5507 61.8538 70.0955 64.316ZM65.9164 68.639C63.2646 64.9515 61.6653 60.5189 61.6653 55.7412C61.6641 51.0736 63.178 46.5318 65.9796 42.7984C63.3816 40.9907 60.0667 39.8104 56.6974 39.8104C52.6547 39.5831 48.241 41.8993 47.596 42.9887C49.9943 46.4496 51.5377 51.1539 51.5377 55.7412C51.5377 60.4826 49.9943 64.8796 47.3411 68.5206C49.9304 70.5194 53.182 71.6641 56.6879 71.6641C60.1125 71.6641 63.3104 70.5739 65.9164 68.639ZM42.3644 68.53L40.484 68.331C37.6137 70.7569 33.8993 72.2466 29.8574 72.2466C25.9608 72.1819 24.806 71.2559 22.545 70.6843C27.3059 74.3899 37.8773 72.9547 40.5842 70.6291C37.6325 72.7455 33.9356 73.9635 29.8574 73.9635C19.83 73.9635 11.6278 65.7795 11.6278 55.7427C11.6278 45.7058 19.8206 37.5138 29.8574 37.5138C34.6075 37.5138 39.0583 39.3027 42.3012 42.3096L40.2029 42.3191C37.2149 45.9789 35.4071 50.6658 35.4071 55.7434C35.4071 59.8129 36.8329 64.263 39.2311 67.8509C34.3721 58.2688 36.8336 50.9839 39.9219 46.4518C38.7322 49.113 37.1968 52.6646 37.2701 55.7434C37.3776 60.8276 39.0764 65.0147 42.3644 68.53ZM43.3362 64.1795C44.934 61.6549 45.7811 58.7282 45.7788 55.7405C45.7788 52.6348 44.8804 49.7194 43.3086 47.2296C41.7558 49.6642 40.7571 52.6348 40.7571 55.7405C40.7571 58.7837 41.8371 61.7812 43.3362 64.1795ZM39.258 68.6666C36.6695 65.0786 34.9975 60.492 34.9975 55.7412C34.9975 50.973 36.5518 46.5498 39.1941 42.9161C36.5026 40.8928 33.2246 39.8025 29.8574 39.8104C21.0829 39.8104 13.9259 46.9674 13.9259 55.7412C13.9259 64.5165 21.0829 71.6641 29.8574 71.6641C33.2732 71.6641 36.6339 70.5099 39.258 68.6666ZM97.1439 68.294C93.8378 64.9871 91.9574 60.7549 91.9574 55.7405C91.9574 50.9629 93.747 46.7118 96.7619 43.4427C99.7412 46.6849 101.566 51.0086 101.566 55.7405C101.566 59.0285 100.932 61.7994 99.3868 64.4598C101.694 57.1575 101.022 52.016 98.2152 47.9378C98.7149 48.6554 100.105 52.6791 99.8502 55.7398C99.8502 59.128 98.8152 62.2802 97.0524 64.8956L97.1439 68.294ZM97.6248 68.8482C101.031 65.3692 102.766 61.0004 102.766 55.7412C102.766 50.6273 100.758 45.9506 97.4882 42.4716C99.9954 39.9644 104.928 37.5124 110.186 37.5124C120.214 37.5124 128.397 45.7044 128.397 55.7412C128.397 59.0292 127.771 61.8001 126.227 64.4605C128.525 57.1583 127.852 52.0167 125.046 47.9385C125.546 48.6561 126.936 52.6798 126.681 55.7405C126.681 64.8324 119.269 72.2451 110.186 72.2451C106.29 72.1805 104.546 71.4999 102.874 70.6828C107.635 74.3884 118.206 72.9532 120.904 70.6276C117.961 72.7441 114.264 73.9621 110.186 73.9621C105.173 73.9621 100.949 72.1274 97.6248 68.8482ZM100.831 68.5206C103.429 70.5194 106.68 71.6641 110.187 71.6641C118.951 71.6641 126.11 64.5157 126.11 55.7412C126.11 46.9674 118.952 39.8104 110.187 39.8104C106.145 39.5831 101.731 41.8993 101.086 42.9887C103.484 46.4496 105.029 51.1539 105.029 55.7412C105.028 60.4818 103.484 64.8789 100.831 68.5206ZM96.8353 64.1795C98.3787 61.718 99.2778 58.8295 99.2778 55.7405C99.2778 52.6348 98.3699 49.7194 96.8077 47.2296C95.2454 49.6642 94.2547 52.6348 94.2547 55.7405C94.2547 58.7837 95.3274 61.7812 96.8353 64.1795Z" fill="#515151"></path></svg>