<svg aria-hidden="true" style="position: absolute; width: 0; height: 0; overflow: hidden;" version="1.1" xmlns="http://www.w3.org/2000/svg" xmlns:xlink="http://www.w3.org/1999/xlink">
<defs>
<symbol id="icon-check" viewBox="0 0 32 32">
<path d="M12.733 20.2l11.3-11.3c0.267-0.267 0.578-0.4 0.933-0.4s0.667 0.133 0.933 0.4 0.4 0.584 0.4 0.951c0 0.367-0.133 0.684-0.4 0.949l-12.233 12.267c-0.267 0.267-0.578 0.4-0.933 0.4s-0.667-0.133-0.933-0.4l-5.733-5.733c-0.267-0.267-0.395-0.583-0.384-0.949s0.15-0.683 0.417-0.951c0.268-0.268 0.584-0.401 0.951-0.4s0.683 0.134 0.949 0.4l4.733 4.767z"></path>
</symbol>
<symbol id="icon-client" viewBox="0 0 32 32">
<path d="M8 8c0-2.122 0.843-4.157 2.343-5.657s3.535-2.343 5.657-2.343c2.122 0 4.157 0.843 5.657 2.343s2.343 3.535 2.343 5.657-0.843 4.157-2.343 5.657c-1.5 1.5-3.535 2.343-5.657 2.343s-4.157-0.843-5.657-2.343c-1.5-1.5-2.343-3.535-2.343-5.657zM0 29.775c0-6.133 4.975-11.108 11.108-11.108h9.783c6.133 0 11.108 4.975 11.108 11.108 0 1.225-0.992 2.225-2.225 2.225h-27.55c-1.225 0-2.225-0.992-2.225-2.225z"></path>
</symbol>
<symbol id="icon-close" viewBox="0 0 32 32">
<path d="M16 17.599l-5.037 5.029c-0.226 0.226-0.49 0.341-0.792 0.344s-0.568-0.112-0.8-0.344c-0.226-0.227-0.34-0.492-0.34-0.796s0.113-0.569 0.34-0.796l5.029-5.037-5.029-5.004c-0.226-0.226-0.341-0.49-0.344-0.792s0.112-0.568 0.344-0.8c0.227-0.226 0.492-0.34 0.796-0.34s0.569 0.113 0.796 0.34l5.037 5.029 5.004-5.029c0.204-0.226 0.464-0.34 0.779-0.34s0.586 0.113 0.812 0.34c0.226 0.227 0.34 0.492 0.34 0.796s-0.113 0.569-0.34 0.796l-5.029 5.004 5.029 5.037c0.226 0.226 0.34 0.492 0.34 0.796s-0.113 0.569-0.34 0.796c-0.227 0.226-0.492 0.34-0.796 0.34s-0.569-0.113-0.796-0.34l-5.004-5.029z"></path>
</symbol>
<symbol id="icon-easter" viewBox="0 0 32 32">
<path d="M9.187 8.48c1.787-3.267 4.147-5.813 6.813-5.813s5.027 2.547 6.813 5.813c-1.133 0.28-2.147 0.947-2.813 1.88-0.384-0.527-0.868-0.972-1.425-1.311s-1.175-0.564-1.82-0.664c-0.644-0.099-1.302-0.070-1.935 0.086s-1.229 0.435-1.754 0.822c-0.4 0.293-0.773 0.653-1.067 1.067-0.667-0.933-1.68-1.6-2.813-1.88zM20 24.080l-4-4-4 4-4-4-1.693 1.693c0.652 2.57 2.298 4.776 4.575 6.133s5.001 1.756 7.571 1.107c1.745-0.446 3.338-1.354 4.612-2.628s2.181-2.867 2.628-4.612l-1.693-1.693-4 4zM12 21.253l4-4 4 4 4-4 2 2c-0.173-3.080-0.933-6.107-2.253-8.907-1.547 0.133-2.747 1.427-2.747 2.987h-2c0-0.796-0.316-1.559-0.879-2.121s-1.326-0.879-2.121-0.879-1.559 0.316-2.121 0.879c-0.563 0.563-0.879 1.326-0.879 2.121h-2c0-1.56-1.2-2.853-2.747-2.987-1.32 2.8-2.080 5.827-2.253 8.907l2-2 4 4z"></path>
</symbol>
<symbol id="icon-elastic" viewBox="0 0 30 32">
<path d="M3.319 5.106c0-0.94 0.743-1.702 1.659-1.702s1.659 0.762 1.659 1.702c0 0.94-0.743 1.702-1.659 1.702s-1.659-0.762-1.659-1.702zM4.978 0c-2.749 0-4.978 2.286-4.978 5.106s2.229 5.106 4.978 5.106c1.91 0 3.569-1.104 4.404-2.723h20.153v-4.766h-20.153c-0.835-1.62-2.493-2.723-4.404-2.723zM13.274 16c0-0.94 0.743-1.702 1.659-1.702s1.659 0.762 1.659 1.702c0 0.94-0.743 1.702-1.659 1.702s-1.659-0.762-1.659-1.702zM10.53 18.383h-10.198v-4.766h10.198c0.835-1.62 2.493-2.723 4.404-2.723s3.569 1.104 4.404 2.723h10.198v4.766h-10.198c-0.835 1.62-2.493 2.723-4.404 2.723s-3.569-1.104-4.404-2.723zM20.485 29.277h-20.153v-4.766h20.153c0.835-1.62 2.494-2.723 4.404-2.723 2.749 0 4.978 2.286 4.978 5.106s-2.229 5.106-4.978 5.106c-1.91 0-3.569-1.104-4.404-2.723zM23.23 26.894c0-0.94 0.743-1.702 1.659-1.702s1.659 0.762 1.659 1.702c0 0.94-0.743 1.702-1.659 1.702s-1.659-0.762-1.659-1.702z"></path>
</symbol>
<symbol id="icon-fast" viewBox="0 0 32 32">
<path d="M10.636 24.983c-0.273-0.802-0.509-1.612-0.71-2.431s-0.373-1.652-0.518-2.498l-2.162 1.452v4.854l3.39-1.377zM15.611 5.618c-1.518 1.688-2.602 3.452-3.253 5.292s-0.977 3.984-0.977 6.431c0 0.968 0.131 2.087 0.392 3.358s0.636 2.583 1.124 3.936h6.204c0.489-1.354 0.864-2.666 1.125-3.936s0.392-2.39 0.392-3.358c0-2.447-0.326-4.591-0.977-6.431s-1.735-3.604-3.253-5.292c-0.056-0.050-0.117-0.088-0.183-0.116s-0.135-0.041-0.21-0.041c-0.075 0-0.144 0.014-0.208 0.041s-0.123 0.066-0.178 0.116zM15.995 16.968c-0.63 0-1.167-0.223-1.613-0.67s-0.668-0.987-0.668-1.622 0.224-1.175 0.673-1.62c0.449-0.445 0.988-0.668 1.618-0.668s1.167 0.224 1.612 0.673c0.445 0.448 0.668 0.988 0.668 1.617 0 0.636-0.224 1.176-0.673 1.621s-0.988 0.667-1.617 0.667zM21.364 24.983l3.39 1.377v-4.854l-2.162-1.452c-0.145 0.846-0.318 1.679-0.518 2.498s-0.437 1.629-0.71 2.431zM16.829 2.771c2.081 2.024 3.612 4.214 4.595 6.571s1.474 4.992 1.474 7.904v0.254l3.116 2.108c0.323 0.206 0.574 0.475 0.752 0.806s0.268 0.684 0.268 1.058v6.562c0 0.401-0.164 0.715-0.493 0.943s-0.681 0.268-1.057 0.118l-5.422-2.181h-8.125l-5.412 2.181c-0.381 0.149-0.736 0.11-1.065-0.118s-0.493-0.542-0.493-0.943v-6.562c0-0.374 0.089-0.726 0.268-1.058s0.429-0.601 0.752-0.806l3.124-2.108v-0.238c0-2.923 0.49-5.563 1.47-7.92s2.51-4.548 4.591-6.571c0.122-0.122 0.256-0.209 0.402-0.261s0.291-0.079 0.435-0.079c0.144 0 0.286 0.026 0.427 0.079s0.272 0.14 0.394 0.261z"></path>
</symbol>
<symbol id="icon-fb" viewBox="0 0 16 32">
<path d="M14.968 17.655l0.826-5.517h-4.955v-3.862c0-1.545 0.516-2.759 2.787-2.759h2.374v-5.076c-1.342-0.221-2.787-0.441-4.129-0.441-4.232 0-7.226 2.759-7.226 7.724v4.414h-4.645v5.517h4.645v14.345c2.064 0 4.129 0 6.194 0v-14.345h4.129z"></path>
</symbol>
<symbol id="icon-firework" viewBox="0 0 32 32">
<path d="M16.6 22.279c-0.227-0.642-0.493-1.267-0.797-1.876-0.747-1.419-1.639-2.756-2.66-3.992-0.029-0.043-0.067-0.079-0.11-0.107s-0.092-0.047-0.143-0.055c-0.051-0.009-0.103-0.007-0.153 0.005s-0.098 0.034-0.14 0.064c-0.083 0.061-0.139 0.153-0.157 0.255s0.005 0.207 0.063 0.292c0.76 1.303 1.413 2.664 1.956 4.071 0.24 0.612 0.48 1.197 0.707 1.809 0.225 0.612 0.437 1.197 0.651 1.809 0.493 1.448 0.937 2.912 1.331 4.389 0.017 0.086 0.059 0.164 0.121 0.226s0.14 0.104 0.226 0.121c0.072 0.014 0.146 0.010 0.216-0.011s0.134-0.059 0.186-0.11c0.052-0.051 0.091-0.114 0.114-0.183s0.028-0.143 0.016-0.215c-0.192-1.553-0.473-3.095-0.84-4.616-0.162-0.635-0.357-1.26-0.584-1.875zM20.485 16.199c-0.712-0.637-1.477-1.211-2.288-1.716-0.348-0.211-0.708-0.403-1.077-0.573-0.365-0.179-0.743-0.33-1.131-0.452-0.9-0.27-1.816-0.488-2.741-0.651-0.049-0.016-0.101-0.023-0.152-0.019s-0.101 0.018-0.147 0.042c-0.046 0.024-0.086 0.056-0.12 0.096s-0.058 0.085-0.073 0.135c-0.033 0.097-0.026 0.203 0.019 0.295s0.125 0.162 0.221 0.196c0.971 0.44 1.863 0.945 2.807 1.331 0.453 0.227 0.931 0.427 1.331 0.639 0.4 0.213 0.931 0.387 1.397 0.612 0.457 0.213 0.9 0.453 1.329 0.719 0.058 0.058 0.13 0.099 0.209 0.12s0.163 0.019 0.241-0.005c0.079-0.023 0.149-0.067 0.205-0.127s0.094-0.134 0.11-0.214c0.020-0.096 0.008-0.197-0.034-0.286s-0.112-0.162-0.199-0.208l0.093 0.068zM13.261 9.8c0.972-0.413 1.916-0.707 2.848-1.065l1.329-0.545c0.453-0.173 0.892-0.373 1.331-0.519 0.467-0.154 0.941-0.278 1.424-0.373 0.105-0.025 0.198-0.088 0.261-0.176s0.093-0.196 0.083-0.304c-0.010-0.108-0.058-0.209-0.136-0.284s-0.18-0.12-0.288-0.127c-0.923 0.001-1.843 0.108-2.741 0.32-0.389 0.093-0.77 0.213-1.144 0.36-0.377 0.138-0.74 0.306-1.091 0.504-0.782 0.469-1.536 0.98-2.261 1.531-0.056 0.018-0.107 0.048-0.15 0.088s-0.077 0.089-0.099 0.143c-0.022 0.055-0.032 0.113-0.028 0.172s0.019 0.116 0.047 0.168c0.028 0.052 0.067 0.097 0.114 0.132s0.102 0.059 0.159 0.071c0.058 0.012 0.117 0.010 0.174-0.004s0.11-0.040 0.156-0.077l0.012-0.013zM12.424 2.735c-0.11-0.045-0.233-0.044-0.342 0s-0.197 0.131-0.244 0.24c-0.354 0.628-0.668 1.275-0.944 1.943-0.11 0.29-0.199 0.588-0.267 0.891-0.080 0.302-0.133 0.608-0.159 0.919-0.048 0.713-0.048 1.428 0 2.141-0.018 0.057-0.023 0.118-0.015 0.177s0.030 0.116 0.063 0.166c0.033 0.050 0.077 0.092 0.129 0.122s0.11 0.049 0.169 0.054c0.051 0.005 0.102 0.001 0.151-0.014s0.094-0.039 0.134-0.071c0.040-0.032 0.072-0.072 0.096-0.117s0.039-0.094 0.044-0.145c0.213-0.785 0.505-1.491 0.705-2.248 0.12-0.44 0.2-0.892 0.293-1.331 0.145-0.679 0.239-1.331 0.424-2.049 0.041-0.058 0.067-0.124 0.077-0.194s0.003-0.141-0.021-0.208c-0.024-0.067-0.063-0.126-0.114-0.175s-0.113-0.083-0.181-0.102zM3.137 8.056c0.908 0.344 1.795 0.735 2.661 1.172 0.28 0.147 0.559 0.267 0.837 0.385 0.28 0.12 0.573 0.227 0.865 0.373 0.293 0.145 0.692 0.359 1.051 0.584 0.078 0.069 0.179 0.104 0.283 0.098s0.201-0.053 0.27-0.131c0.069-0.078 0.104-0.179 0.098-0.283s-0.053-0.201-0.131-0.27c-0.491-0.6-1.054-1.136-1.677-1.596-0.277-0.183-0.571-0.339-0.877-0.467-0.301-0.136-0.613-0.247-0.932-0.332-0.727-0.181-1.464-0.314-2.208-0.4-0.109-0.016-0.22 0.009-0.312 0.069s-0.159 0.152-0.189 0.258c-0.029 0.106-0.019 0.22 0.029 0.319s0.131 0.177 0.232 0.22zM8.367 12.952c0.096-0.019 0.181-0.074 0.239-0.154s0.083-0.178 0.071-0.275c-0.012-0.097-0.060-0.187-0.135-0.25s-0.171-0.096-0.268-0.092c-1.035-0.020-2.070 0.069-3.087 0.267-0.456 0.086-0.902 0.219-1.331 0.397-0.424 0.165-0.834 0.366-1.224 0.6-0.88 0.55-1.685 1.211-2.395 1.968-0.060 0.031-0.112 0.075-0.152 0.13s-0.067 0.117-0.079 0.184c-0.012 0.067-0.008 0.135 0.011 0.2s0.052 0.125 0.098 0.175c0.046 0.050 0.102 0.089 0.165 0.113s0.131 0.034 0.198 0.028c0.067-0.006 0.132-0.027 0.19-0.063s0.107-0.083 0.143-0.14c0.897-0.631 1.865-1.154 2.885-1.557 0.587-0.253 1.184-0.48 1.809-0.693 0.934-0.341 1.888-0.62 2.861-0.837zM9.391 14.788c-0.851 0.547-1.628 1.2-2.315 1.943-0.295 0.328-0.562 0.679-0.799 1.051-0.231 0.369-0.44 0.75-0.625 1.144-0.413 0.928-0.716 1.901-0.904 2.9-0.024 0.083-0.022 0.172 0.004 0.255s0.077 0.156 0.145 0.21c0.068 0.054 0.15 0.087 0.237 0.094s0.173-0.011 0.249-0.053c0.104-0.057 0.182-0.153 0.216-0.267 0.308-0.741 0.667-1.456 1.077-2.143 0.373-0.637 0.8-1.236 1.211-1.848 0.591-0.944 1.264-1.834 2.009-2.661 0.072-0.072 0.113-0.171 0.113-0.273s-0.040-0.2-0.113-0.273c-0.060-0.073-0.145-0.121-0.238-0.136s-0.189 0.005-0.268 0.056zM23.891 14.017c-0.751 0.999-1.38 2.084-1.875 3.232-0.2 0.493-0.387 0.997-0.547 1.504-0.151 0.503-0.275 1.013-0.372 1.529-0.24 1.211-0.333 2.421-0.453 3.632-0.029 0.055-0.045 0.116-0.046 0.178s0.013 0.123 0.041 0.179c0.028 0.055 0.069 0.103 0.119 0.14s0.109 0.060 0.17 0.069 0.124 0.003 0.183-0.017c0.059-0.020 0.111-0.054 0.154-0.099s0.074-0.099 0.091-0.159 0.020-0.122 0.008-0.183c0.399-1.331 0.864-2.728 1.329-4.111 0.267-0.892 0.507-1.796 0.8-2.661 0.313-0.952 0.698-1.874 1.156-2.767 0.032-0.049 0.053-0.104 0.064-0.161s0.009-0.116-0.003-0.173c-0.012-0.057-0.036-0.111-0.069-0.159s-0.075-0.089-0.124-0.12c-0.049-0.031-0.104-0.053-0.161-0.063s-0.116-0.009-0.173 0.003c-0.057 0.012-0.111 0.036-0.159 0.069s-0.089 0.075-0.12 0.124l-0.013 0.015zM28.733 16.040c-0.040-0.173-0.093-0.342-0.16-0.507-0.073-0.165-0.157-0.326-0.252-0.48-0.262-0.342-0.56-0.654-0.891-0.931-0.026-0.044-0.061-0.082-0.102-0.113s-0.088-0.053-0.137-0.065-0.101-0.015-0.152-0.007c-0.051 0.008-0.099 0.025-0.143 0.052-0.087 0.057-0.149 0.146-0.174 0.247s-0.010 0.208 0.041 0.299c0.133 0.399 0.16 0.757 0.267 1.144 0.044 0.156 0.102 0.307 0.173 0.452 0.067 0.147 0.147 0.293 0.227 0.44 0.213 0.345 0.439 0.651 0.677 0.997 0.044 0.107 0.128 0.193 0.235 0.239s0.227 0.048 0.335 0.006c0.108-0.042 0.196-0.125 0.243-0.231s0.052-0.226 0.012-0.335c-0.067-0.4-0.107-0.784-0.2-1.209zM31.66 11.409c-0.381-0.199-0.789-0.343-1.211-0.427-0.187-0.027-0.373-0.027-0.559 0-0.187 0.009-0.368 0.044-0.545 0.107-0.402 0.151-0.774 0.356-1.117 0.613-0.049 0.015-0.095 0.040-0.135 0.073s-0.072 0.074-0.096 0.12c-0.024 0.046-0.038 0.096-0.042 0.147s0.002 0.103 0.019 0.152c0.017 0.050 0.043 0.096 0.077 0.136s0.076 0.072 0.123 0.096 0.098 0.038 0.151 0.041c0.053 0.004 0.105-0.003 0.155-0.020 0.412-0.021 0.825-0.021 1.237 0l0.665-0.067c0.356-0.064 0.715-0.104 1.077-0.12 0.116 0.023 0.237 0 0.337-0.065s0.169-0.166 0.195-0.282c0.020-0.111-0.003-0.226-0.065-0.32s-0.158-0.161-0.268-0.187zM28.016 9.973c0.519-0.387 1.024-0.64 1.503-0.96 0.48-0.319 0.532-0.397 0.799-0.584 0.416-0.33 0.859-0.618 1.329-0.865 0.055-0.017 0.105-0.044 0.149-0.081s0.080-0.082 0.106-0.133c0.026-0.051 0.042-0.106 0.046-0.163s-0.003-0.114-0.021-0.168c-0.015-0.067-0.044-0.129-0.087-0.182s-0.097-0.096-0.159-0.124-0.13-0.042-0.198-0.040c-0.068 0.002-0.135 0.020-0.195 0.053-0.577 0.080-1.141 0.236-1.676 0.467-0.232 0.098-0.451 0.224-0.653 0.373-0.205 0.141-0.396 0.302-0.571 0.479-0.356 0.42-0.679 0.863-0.971 1.329-0.073 0.075-0.114 0.175-0.114 0.28s0.041 0.205 0.114 0.28c0.033 0.047 0.076 0.085 0.126 0.113s0.106 0.044 0.163 0.048c0.057 0.004 0.115-0.005 0.168-0.026s0.103-0.054 0.142-0.095zM24.916 8.483c-0.082-0.152-0.181-0.295-0.293-0.427-0.109-0.121-0.23-0.233-0.36-0.332-0.311-0.227-0.639-0.426-0.984-0.599-0.040-0.043-0.088-0.077-0.142-0.101s-0.112-0.036-0.171-0.036c-0.059 0-0.117 0.012-0.171 0.036s-0.102 0.058-0.142 0.101c-0.080 0.084-0.125 0.196-0.125 0.313s0.045 0.228 0.125 0.313c0.213 0.307 0.36 0.599 0.56 0.905 0.2 0.305 0.147 0.227 0.24 0.345 0.089 0.108 0.186 0.211 0.292 0.307 0.253 0.239 0.532 0.399 0.811 0.664 0.051 0.090 0.136 0.156 0.236 0.184s0.207 0.014 0.297-0.037c0.090-0.051 0.156-0.136 0.184-0.236s0.014-0.207-0.037-0.297c-0.065-0.379-0.172-0.748-0.32-1.103zM19.767 11.076c-0.004 0.059 0.005 0.118 0.024 0.174s0.050 0.107 0.090 0.15c0.040 0.044 0.088 0.079 0.142 0.103s0.112 0.038 0.171 0.040c0.307 0.107 0.559 0.24 0.851 0.333l0.36 0.092c0.124 0.013 0.248 0.013 0.372 0 0.307-0.013 0.613-0.044 0.917-0.093 0.050 0.014 0.102 0.017 0.154 0.009s0.1-0.026 0.144-0.053c0.044-0.028 0.082-0.064 0.111-0.107s0.049-0.091 0.058-0.143c0.024-0.099 0.008-0.203-0.045-0.29s-0.137-0.15-0.235-0.175c-0.271-0.2-0.559-0.373-0.864-0.519-0.128-0.054-0.262-0.090-0.4-0.107-0.141-0.013-0.284-0.013-0.425 0-0.331 0.040-0.659 0.098-0.984 0.173-0.111 0.006-0.215 0.050-0.296 0.126s-0.132 0.176-0.144 0.286z"></path>
</symbol>
<symbol id="icon-flower" viewBox="0 0 32 32">
<path d="M16 1.333c1.415 0 2.771 0.562 3.771 1.562s1.562 2.357 1.562 3.771l-0.003 0.073 0.040-0.024c1.124-0.652 2.448-0.868 3.72-0.607l0.316 0.075c0.673 0.182 1.304 0.496 1.856 0.922s1.014 0.958 1.36 1.564c0.703 1.224 0.894 2.676 0.531 4.040s-1.251 2.529-2.471 3.241l-0.091 0.048 0.095 0.052c1.175 0.687 2.044 1.797 2.429 3.102s0.258 2.709-0.356 3.924l-0.135 0.248c-0.346 0.607-0.809 1.139-1.361 1.566s-1.184 0.741-1.859 0.923c-0.674 0.182-1.378 0.229-2.071 0.137s-1.36-0.319-1.964-0.669l-0.040-0.027 0.003 0.076c0 1.368-0.526 2.684-1.469 3.676s-2.231 1.583-3.598 1.651l-0.267 0.007c-1.414 0-2.771-0.562-3.771-1.562s-1.562-2.357-1.562-3.771l0.001-0.075-0.039 0.025c-1.123 0.652-2.447 0.869-3.72 0.608l-0.315-0.075c-0.674-0.182-1.305-0.495-1.857-0.922s-1.014-0.958-1.36-1.565c-0.703-1.223-0.894-2.675-0.531-4.039s1.25-2.529 2.469-3.241l0.093-0.051-0.095-0.051c-1.175-0.687-2.044-1.797-2.429-3.102s-0.258-2.709 0.356-3.924l0.133-0.249c0.346-0.607 0.809-1.14 1.362-1.568s1.185-0.741 1.86-0.923c0.675-0.182 1.379-0.229 2.072-0.137s1.361 0.32 1.965 0.671l0.035 0.024v-0.073c0-1.368 0.526-2.684 1.469-3.676s2.231-1.583 3.598-1.651l0.267-0.007zM16 12c-1.061 0-2.078 0.421-2.828 1.172s-1.172 1.768-1.172 2.828c0 1.061 0.421 2.078 1.172 2.828s1.768 1.172 2.828 1.172c1.061 0 2.078-0.421 2.828-1.172s1.172-1.768 1.172-2.828-0.421-2.078-1.172-2.828c-0.75-0.75-1.767-1.172-2.828-1.172z"></path>
</symbol>
<symbol id="icon-arrow-down" viewBox="0 0 32 32">
<path stroke-linejoin="miter" stroke-linecap="butt" stroke-miterlimit="4" stroke-width="1.3333" d="M9.449 12.031c0.134 0 0.237 0.041 0.341 0.145l6.208 6.244 6.243-6.244c0.104-0.103 0.192-0.133 0.299-0.129 0.126 0.005 0.234 0.048 0.349 0.163 0.104 0.104 0.145 0.207 0.145 0.341s-0.041 0.236-0.145 0.34l-6.559 6.559c-0.072 0.072-0.129 0.107-0.167 0.122-0.047 0.020-0.101 0.031-0.165 0.031-0.033 0-0.062-0.004-0.090-0.009l-0.077-0.022-0.070-0.040c-0.028-0.019-0.059-0.046-0.095-0.082l-6.592-6.591c-0.098-0.098-0.133-0.191-0.129-0.318 0.005-0.143 0.053-0.255 0.163-0.365 0.104-0.104 0.206-0.144 0.34-0.145z"></path>
</symbol>
<symbol id="icon-asortyment" viewBox="0 0 32 32">
<path d="M11.154 0c-1.262 0-2.286 1.023-2.286 2.286v9.714c0 1.262 1.023 2.286 2.286 2.286h9.714c1.262 0 2.286-1.023 2.286-2.286v-9.714c0-1.262-1.023-2.286-2.286-2.286h-9.714zM2.286 17.714c-1.262 0-2.286 1.023-2.286 2.286v9.714c0 1.262 1.023 2.286 2.286 2.286h9.714c1.262 0 2.286-1.023 2.286-2.286v-9.714c0-1.262-1.023-2.286-2.286-2.286h-9.714zM17.714 20c0-1.262 1.023-2.286 2.286-2.286h9.714c1.262 0 2.286 1.023 2.286 2.286v9.714c0 1.262-1.023 2.286-2.286 2.286h-9.714c-1.262 0-2.286-1.023-2.286-2.286v-9.714z"></path>
</symbol>
<symbol id="icon-burger" viewBox="0 0 32 32">
<path d="M3.873 26.667c-0.338 0-0.623-0.105-0.856-0.316s-0.35-0.47-0.35-0.776c0-0.306 0.117-0.563 0.35-0.773s0.518-0.314 0.856-0.314h24.246c0.341 0 0.628 0.106 0.863 0.318s0.352 0.472 0.352 0.779c0 0.308-0.117 0.565-0.352 0.771s-0.522 0.31-0.863 0.31h-24.246zM3.873 17.089c-0.338 0-0.623-0.105-0.856-0.316s-0.35-0.47-0.35-0.776c0-0.306 0.117-0.563 0.35-0.773s0.518-0.314 0.856-0.314h24.246c0.341 0 0.628 0.106 0.863 0.318s0.352 0.472 0.352 0.779c0 0.307-0.117 0.565-0.352 0.771s-0.522 0.31-0.863 0.31h-24.246zM3.873 7.512c-0.338 0-0.623-0.105-0.856-0.316s-0.35-0.47-0.35-0.776 0.117-0.563 0.35-0.773c0.233-0.209 0.518-0.314 0.856-0.314h24.246c0.341 0 0.628 0.106 0.863 0.318s0.352 0.472 0.352 0.779c0 0.307-0.117 0.564-0.352 0.771s-0.522 0.31-0.863 0.31h-24.246z"></path>
</symbol>
<symbol id="icon-cart" viewBox="0 0 32 32">
<path d="M9.56 29.388c-0.662 0-1.226-0.236-1.693-0.707s-0.7-1.038-0.7-1.7c0-0.662 0.236-1.226 0.707-1.693s1.038-0.7 1.7-0.7c0.662 0 1.226 0.236 1.693 0.707s0.7 1.038 0.7 1.7c0 0.662-0.236 1.226-0.707 1.693s-1.038 0.7-1.7 0.7zM22.893 29.388c-0.662 0-1.226-0.236-1.693-0.707s-0.7-1.038-0.7-1.7c0-0.662 0.236-1.226 0.707-1.693s1.038-0.7 1.7-0.7c0.662 0 1.226 0.236 1.693 0.707s0.7 1.038 0.7 1.7c0 0.662-0.236 1.226-0.707 1.693s-1.038 0.7-1.7 0.7zM7.985 7.388l3.531 7.329h9.576l4.007-7.329h-17.115zM6.889 5.212h19.405c0.581 0 1.022 0.263 1.325 0.788s0.305 1.053 0.006 1.583l-4.364 7.869c-0.255 0.433-0.583 0.782-0.984 1.048s-0.844 0.399-1.331 0.399h-10.043l-1.811 3.379h15.207c0.308 0 0.567 0.105 0.775 0.314s0.313 0.469 0.313 0.778c0 0.309-0.104 0.567-0.313 0.774s-0.467 0.31-0.775 0.31h-15.067c-0.976 0-1.677-0.327-2.104-0.981s-0.419-1.383 0.025-2.188l2.109-3.886-5.019-10.646h-1.544c-0.308 0-0.567-0.105-0.775-0.314s-0.313-0.468-0.313-0.778c0-0.309 0.104-0.567 0.313-0.774s0.467-0.31 0.775-0.31h2.235c0.227 0 0.432 0.056 0.617 0.167s0.319 0.268 0.403 0.471l0.935 1.995z"></path>
</symbol>
<symbol id="icon-halloween" viewBox="0 0 32 32">
<path d="M5.333 10.167c0.253 0.012 0.507 0.012 0.76 0 0.023 0.328 0.072 0.653 0.147 0.973 1.005-0.421 2.092-0.609 3.18-0.549s2.148 0.366 3.1 0.895c0.974-0.541 2.060-0.849 3.172-0.899s2.222 0.157 3.241 0.606c-0.104-0.488-0.251-0.965-0.44-1.427-0.47-1.575-1.469-2.941-2.827-3.867-1.349-0.981-3.002-1.454-4.667-1.333-0.402 0.035-0.8 0.11-1.187 0.227-0.455-1.822-1.578-3.407-3.147-4.44-0.192-0.136-0.416-0.218-0.651-0.239s-0.47 0.020-0.683 0.119c-0.211 0.103-0.391 0.259-0.522 0.453s-0.209 0.42-0.225 0.653l-0.427 3.44-3.147 1.653c-0.204 0.106-0.378 0.262-0.503 0.455s-0.2 0.414-0.214 0.644c-0.015 0.229 0.030 0.459 0.13 0.666s0.252 0.385 0.441 0.516c1.276 0.918 2.802 1.425 4.373 1.453h0.093zM31.507 4.78c-0.136-0.224-0.335-0.403-0.572-0.514s-0.502-0.151-0.761-0.112l-3.507 0.493-0.64-3.533c-0.043-0.258-0.161-0.498-0.34-0.689s-0.409-0.326-0.664-0.387c-0.255-0.061-0.521-0.046-0.767 0.043s-0.46 0.249-0.616 0.46l-4.48 6.133c0.828 1.277 1.423 2.69 1.76 4.173 0.682-0.213 1.392-0.32 2.107-0.32 1.529-0.002 3.022 0.463 4.28 1.333l4.133-5.653c0.145-0.207 0.229-0.451 0.24-0.704s-0.048-0.503-0.174-0.723zM25.227 13.007l-0.173-0.080h-0.32l-0.387-0.107h-3.013l-0.307 0.12c-0.559 0.221-1.081 0.527-1.547 0.907-0.347-0.275-0.723-0.511-1.12-0.707h-3.027l-0.667-0.427c-0.779 0.221-1.504 0.598-2.133 1.107-0.855-0.715-1.905-1.156-3.013-1.267-0.16-0.014-0.32-0.014-0.48 0h-1.6c-3.053 1.027-5.333 4.827-5.333 9.333 0 5.333 3.133 9.64 7.013 9.64 1.283-0.028 2.518-0.499 3.493-1.333 1.015 0.775 2.233 1.238 3.507 1.333 1.287-0.028 2.526-0.499 3.507-1.333 0.976 0.834 2.21 1.305 3.493 1.333 3.867 0 7.013-4.32 7.013-9.64-0.093-4-2.133-7.613-4.907-8.88zM19.987 17.007c0.396 0 0.782 0.117 1.111 0.337s0.585 0.532 0.737 0.898c0.151 0.365 0.191 0.767 0.114 1.155s-0.268 0.744-0.547 1.024c-0.28 0.28-0.636 0.47-1.024 0.547s-0.79 0.037-1.155-0.114-0.678-0.408-0.898-0.737c-0.22-0.329-0.337-0.715-0.337-1.111-0.002-0.265 0.049-0.527 0.15-0.773s0.249-0.468 0.436-0.655c0.187-0.187 0.41-0.336 0.655-0.436s0.508-0.151 0.773-0.15l-0.013 0.013zM12.133 17.007c0.396 0 0.782 0.117 1.111 0.337s0.585 0.532 0.737 0.898c0.151 0.365 0.191 0.767 0.114 1.155s-0.268 0.744-0.547 1.024c-0.28 0.28-0.636 0.47-1.024 0.547s-0.79 0.037-1.156-0.114-0.678-0.408-0.898-0.737c-0.22-0.329-0.337-0.715-0.337-1.111-0.002-0.264 0.049-0.525 0.148-0.769s0.247-0.466 0.433-0.653c0.186-0.187 0.407-0.336 0.65-0.437s0.505-0.153 0.768-0.153v0.013zM22.013 25.007l-2.667 1.747c-0.217 0.146-0.472 0.225-0.733 0.227-0.266 0.001-0.526-0.078-0.747-0.227l-1.867-1.24-1.893 1.253c-0.219 0.146-0.477 0.224-0.74 0.224s-0.521-0.078-0.74-0.224l-2.667-1.747c-0.146-0.098-0.27-0.224-0.367-0.37s-0.164-0.31-0.197-0.482-0.033-0.349 0.002-0.521c0.035-0.172 0.104-0.335 0.202-0.48 0.195-0.292 0.499-0.496 0.843-0.565s0.703-0.001 0.997 0.192l1.893 1.267 1.88-1.267c0.219-0.146 0.477-0.224 0.74-0.224s0.521 0.078 0.74 0.224l1.973 1.213 1.88-1.267c0.295-0.196 0.656-0.267 1.004-0.197s0.653 0.275 0.849 0.571c0.196 0.295 0.267 0.656 0.197 1.004s-0.275 0.653-0.571 0.849l-0.013 0.040z"></path>
</symbol>
<symbol id="icon-heart" viewBox="0 0 32 32">
<path d="M16 28.467l-1.933-1.76c-6.867-6.227-11.4-10.347-11.4-15.373 0-4.12 3.227-7.333 7.333-7.333 2.32 0 4.547 1.080 6 2.773 1.453-1.693 3.68-2.773 6-2.773 4.107 0 7.333 3.213 7.333 7.333 0 5.027-4.533 9.147-11.4 15.373l-1.933 1.76z"></path>
</symbol>
<symbol id="icon-inst" viewBox="0 0 32 32">
<path d="M16.001 0c-4.345 0-4.891 0.019-6.597 0.097-1.703 0.078-2.866 0.348-3.883 0.743-1.052 0.409-1.945 0.955-2.834 1.845s-1.437 1.782-1.847 2.834c-0.397 1.018-0.667 2.181-0.743 3.883-0.076 1.707-0.096 2.252-0.096 6.598s0.019 4.889 0.097 6.596c0.078 1.703 0.348 2.866 0.743 3.883 0.409 1.052 0.956 1.945 1.845 2.834s1.782 1.438 2.833 1.847c1.018 0.396 2.181 0.665 3.884 0.743 1.707 0.078 2.252 0.097 6.597 0.097s4.889-0.019 6.596-0.097c1.703-0.078 2.867-0.348 3.885-0.743 1.052-0.409 1.943-0.957 2.832-1.847 0.89-0.889 1.437-1.782 1.847-2.834 0.393-1.018 0.663-2.181 0.743-3.883 0.077-1.707 0.097-2.251 0.097-6.596s-0.020-4.891-0.097-6.597c-0.080-1.703-0.35-2.866-0.743-3.883-0.41-1.052-0.957-1.945-1.847-2.834s-1.78-1.437-2.833-1.845c-1.020-0.396-2.183-0.665-3.887-0.743-1.707-0.078-2.25-0.097-6.597-0.097h0.005zM14.566 2.883c0.426-0.001 0.901 0 1.435 0 4.272 0 4.778 0.015 6.465 0.092 1.56 0.071 2.407 0.332 2.971 0.551 0.747 0.29 1.279 0.637 1.839 1.197s0.907 1.093 1.197 1.84c0.219 0.563 0.48 1.41 0.551 2.97 0.077 1.687 0.093 2.193 0.093 6.463s-0.017 4.777-0.093 6.463c-0.071 1.56-0.332 2.407-0.551 2.97-0.29 0.747-0.637 1.278-1.197 1.838s-1.092 0.907-1.839 1.197c-0.563 0.22-1.411 0.48-2.971 0.551-1.687 0.077-2.193 0.093-6.465 0.093s-4.779-0.017-6.465-0.093c-1.56-0.072-2.407-0.333-2.971-0.552-0.747-0.29-1.28-0.637-1.84-1.197s-0.907-1.092-1.197-1.839c-0.219-0.563-0.48-1.41-0.551-2.97-0.077-1.687-0.092-2.193-0.092-6.466s0.015-4.777 0.092-6.463c0.071-1.56 0.332-2.407 0.551-2.971 0.29-0.747 0.637-1.28 1.197-1.84s1.093-0.907 1.84-1.197c0.564-0.22 1.411-0.48 2.971-0.552 1.476-0.067 2.048-0.087 5.030-0.090v0.004zM24.542 5.54c-1.060 0-1.92 0.859-1.92 1.919s0.86 1.92 1.92 1.92 1.92-0.86 1.92-1.92c0-1.060-0.86-1.92-1.92-1.92v0.001zM16.001 7.783c-4.538 0-8.217 3.679-8.217 8.217s3.679 8.215 8.217 8.215c4.538 0 8.216-3.677 8.216-8.215s-3.678-8.217-8.216-8.217h0zM16.001 10.667c2.945 0 5.333 2.388 5.333 5.333s-2.388 5.333-5.333 5.333c-2.946 0-5.333-2.388-5.333-5.333s2.388-5.333 5.333-5.333z"></path>
</symbol>
<symbol id="icon-logo" viewBox="0 0 142 32">
<path d="M14.025 9.792c6.274 0.244 9.196 2.354 9.654 5.087l0.010-0.595c0.018 0.025 0.031-0.031 0.033-0.124 0.004-0.231 0.124-0.853 0.277-1.461 0.192-0.739 0.532-1.413 0.794-1.584 0.52-0.322 1.049 0.055 1.173 0.843 0.055 0.344 0.044 0.656-0.033 1.066-0.184 0.97-0.742 2.115-1.296 2.648l-0.17 0.166 0.224 0.253c0.535 0.596 0.992 1.626 1.134 2.558 0.115 0.744 0.054 1.274-0.203 1.706-0.172 0.297-0.323 0.381-0.642 0.37-0.216-0.004-0.292-0.036-0.438-0.182-0.231-0.222-0.462-0.744-0.621-1.396-0.119-0.495-0.258-1.458-0.253-1.77-0.001-0.119-0.007-0.137-0.026-0.069l0.011-0.719c-0.534 2.72-3.378 5.821-8.199 8.302-0.307 0.984-0.706 1.937-1.167 2.951v3.781h3.071v0.369h-8.66v-0.369h3.040v-9.275c0.993-0.301 1.845-0.805 2.549-1.45v6.053c1.228-2.797 1.812-5.533 1.812-8.085 0-0.192-0.003-0.383-0.010-0.572 0.119-0.285 0.223-0.577 0.311-0.874 0.045 0.471 0.068 0.954 0.068 1.446 0 1.752-0.307 3.658-0.86 5.533 3.931-2.275 5.62-5.287 5.62-7.9 0-3.044-2.217-5.64-6.59-6.235-0.195-0.164-0.399-0.321-0.611-0.474zM9.455 0.001c0.096 0.001 0.191 0.004 0.286 0.008 0.005 0 0.010 0 0.015 0.001 0.061 0.003 0.122 0.007 0.182 0.011 1.868 0.133 3.339 0.898 4.447 2.012 0.031 0.031 0.062 0.063 0.092 0.094l0.436-1.896h0.41l-2.074 9.045-0.292-0.188 1.315-6.012-0.007-0.012c-0.021-0.035-0.045-0.075-0.071-0.118-0.002-0.004-0.005-0.008-0.007-0.012-0.008-0.012-0.015-0.025-0.023-0.038l-0.005-0.008c-0.008-0.012-0.015-0.024-0.023-0.037-0.007-0.011-0.014-0.022-0.021-0.033-0.011-0.018-0.023-0.036-0.035-0.055-0.005-0.008-0.010-0.016-0.015-0.023-0.004-0.006-0.008-0.012-0.012-0.018-0.008-0.012-0.016-0.024-0.024-0.036-0.003-0.004-0.005-0.008-0.008-0.012-0.006-0.009-0.012-0.018-0.018-0.027l-0.001-0.002c-0.005-0.007-0.010-0.015-0.015-0.022-0.003-0.005-0.006-0.009-0.009-0.014l-0.001-0.002c-0.007-0.011-0.015-0.022-0.023-0.033-0.005-0.008-0.011-0.015-0.016-0.023-0.007-0.009-0.013-0.019-0.020-0.028-0.004-0.006-0.009-0.012-0.013-0.019-0.008-0.011-0.016-0.022-0.024-0.033-0.004-0.006-0.009-0.012-0.014-0.018-0.009-0.011-0.017-0.023-0.026-0.035-0.004-0.005-0.008-0.010-0.012-0.016-0.009-0.012-0.018-0.023-0.027-0.035-0.008-0.011-0.017-0.021-0.025-0.032l-0.004-0.005c-0.005-0.006-0.009-0.012-0.014-0.017-0.010-0.013-0.021-0.026-0.032-0.040-0.004-0.005-0.008-0.010-0.011-0.014-0.011-0.014-0.023-0.028-0.035-0.042-0.004-0.005-0.008-0.010-0.012-0.015-0.008-0.010-0.016-0.019-0.024-0.029s-0.015-0.018-0.023-0.027c-0.008-0.010-0.017-0.019-0.025-0.029s-0.017-0.019-0.025-0.029c-0.006-0.007-0.012-0.013-0.018-0.020-0.011-0.012-0.022-0.025-0.033-0.037-0.008-0.008-0.015-0.017-0.023-0.025-0.010-0.010-0.019-0.021-0.029-0.031-0.008-0.008-0.015-0.016-0.023-0.024-0.028-0.030-0.057-0.060-0.087-0.091-0.013-0.013-0.026-0.026-0.039-0.039-0.031-0.030-0.063-0.061-0.095-0.091-0.023-0.022-0.047-0.044-0.071-0.066-0.027-0.025-0.055-0.049-0.083-0.074-0.031-0.027-0.063-0.054-0.096-0.081-0.040-0.033-0.082-0.066-0.124-0.099-0.019-0.014-0.037-0.029-0.056-0.043-0.006-0.005-0.013-0.009-0.019-0.014s-0.011-0.008-0.017-0.013c-0.007-0.005-0.015-0.011-0.022-0.016-0.006-0.005-0.013-0.009-0.019-0.014-0.009-0.007-0.019-0.013-0.028-0.020l-0.007-0.005c-0.006-0.004-0.012-0.009-0.018-0.013-0.021-0.015-0.042-0.029-0.064-0.044-0.006-0.004-0.011-0.008-0.017-0.011-0.021-0.014-0.043-0.029-0.065-0.043-0.006-0.004-0.013-0.008-0.019-0.012s-0.014-0.009-0.021-0.014c-0.004-0.003-0.009-0.006-0.014-0.009l-0.002-0.001c-0.010-0.006-0.019-0.012-0.029-0.018-0.003-0.002-0.007-0.004-0.010-0.006-0.011-0.007-0.023-0.014-0.034-0.021-0.005-0.003-0.009-0.005-0.013-0.008-0.009-0.005-0.018-0.011-0.027-0.016-0.007-0.004-0.013-0.008-0.020-0.012l-0.001-0.001c-0.007-0.004-0.014-0.008-0.021-0.012s-0.014-0.008-0.021-0.012c-0.009-0.005-0.017-0.010-0.026-0.015-0.004-0.003-0.009-0.005-0.013-0.008l-0.009-0.005c-0.007-0.004-0.013-0.007-0.020-0.011-0.010-0.006-0.020-0.011-0.030-0.017l-0.004-0.002c-0.003-0.002-0.006-0.003-0.009-0.005-0.008-0.005-0.017-0.009-0.025-0.014s-0.019-0.010-0.028-0.015c-0.005-0.003-0.010-0.005-0.015-0.008-0.009-0.005-0.018-0.009-0.027-0.014-0.007-0.004-0.014-0.007-0.022-0.011l-0.004-0.002c-0.007-0.003-0.014-0.007-0.021-0.010-0.008-0.004-0.017-0.008-0.025-0.012s-0.018-0.009-0.027-0.013l-0.002-0.001c-0.003-0.002-0.006-0.003-0.010-0.005-0.013-0.006-0.026-0.013-0.040-0.019-0.003-0.002-0.007-0.003-0.010-0.005-0.011-0.005-0.022-0.010-0.034-0.016-0.006-0.003-0.013-0.006-0.019-0.009-0.012-0.006-0.025-0.011-0.037-0.017l-0.007-0.003c-0.012-0.006-0.025-0.011-0.037-0.017-0.006-0.003-0.013-0.005-0.019-0.008-0.012-0.005-0.024-0.010-0.037-0.016-0.003-0.001-0.007-0.003-0.010-0.004-0.014-0.006-0.028-0.012-0.043-0.018-0.003-0.001-0.006-0.003-0.009-0.004-0.012-0.005-0.025-0.010-0.037-0.015-0.007-0.003-0.014-0.005-0.021-0.008-0.012-0.005-0.024-0.009-0.036-0.014-0.003-0.001-0.007-0.003-0.010-0.004-0.014-0.005-0.027-0.010-0.041-0.015-0.007-0.002-0.013-0.005-0.020-0.007l-0-0c-0.008-0.003-0.017-0.006-0.025-0.009-0.011-0.004-0.023-0.008-0.034-0.012-0.008-0.003-0.017-0.006-0.025-0.009s-0.016-0.006-0.024-0.008c-0.014-0.005-0.027-0.009-0.041-0.014-0.003-0.001-0.007-0.002-0.010-0.003-0.013-0.004-0.026-0.009-0.039-0.013-0.008-0.003-0.016-0.005-0.024-0.008-0.009-0.003-0.019-0.006-0.028-0.009s-0.019-0.006-0.028-0.009c-0.010-0.003-0.019-0.006-0.029-0.009l-0.002-0c-0.009-0.003-0.018-0.006-0.027-0.008-0.011-0.003-0.021-0.006-0.032-0.009l-0.003-0.001c-0.006-0.002-0.012-0.004-0.019-0.005-0.013-0.004-0.027-0.007-0.040-0.011-0.007-0.002-0.014-0.004-0.021-0.006-0.013-0.003-0.026-0.007-0.039-0.010l-0.001-0c-0.006-0.002-0.012-0.003-0.018-0.005-0.012-0.003-0.023-0.006-0.035-0.009-0.010-0.003-0.021-0.005-0.031-0.008s-0.021-0.005-0.031-0.008c-0.008-0.002-0.016-0.004-0.024-0.006-0.012-0.003-0.025-0.006-0.038-0.009l-0.003-0.001c-0.008-0.002-0.015-0.003-0.023-0.005-0.014-0.003-0.028-0.006-0.042-0.009-0.006-0.001-0.012-0.003-0.017-0.004-0.013-0.003-0.027-0.006-0.040-0.008l-0.003-0.001c-0.008-0.002-0.016-0.003-0.024-0.005s-0.018-0.004-0.026-0.005l-0.001-0c-0.012-0.002-0.024-0.005-0.036-0.007-0.006-0.001-0.012-0.002-0.018-0.003l-0.006-0.001c-0.014-0.003-0.028-0.005-0.042-0.008-0.010-0.002-0.019-0.003-0.029-0.005l-0.004-0.001c-0.008-0.001-0.016-0.003-0.024-0.004-0.020-0.003-0.040-0.007-0.060-0.010l-0.004-0.001c-0.016-0.002-0.031-0.005-0.047-0.007-0.008-0.001-0.016-0.003-0.025-0.004-0.013-0.002-0.026-0.004-0.039-0.006-0.009-0.001-0.017-0.003-0.026-0.004-0.016-0.002-0.032-0.004-0.048-0.006l-0-0c-0.006-0.001-0.012-0.002-0.018-0.002-0.018-0.002-0.035-0.004-0.053-0.006l-0.001-0c-0.005-0.001-0.009-0.001-0.014-0.002-0.042-0.005-0.084-0.009-0.126-0.013-0.004-0-0.008-0.001-0.013-0.001-0.019-0.002-0.039-0.003-0.059-0.005-0.004-0-0.007-0.001-0.011-0.001-0.014-0.001-0.029-0.002-0.043-0.003l-0.001-0c-0.010-0.001-0.019-0.002-0.029-0.002-0.015-0.001-0.030-0.002-0.044-0.003-0.009-0.001-0.017-0.001-0.026-0.002-0.017-0.001-0.034-0.002-0.051-0.003-0.007-0-0.014-0.001-0.021-0.001-0.010-0.001-0.021-0.001-0.031-0.001-0.017-0.001-0.033-0.002-0.050-0.002-0.071-0.003-0.143-0.005-0.216-0.005l-0.076-0c-0.021 0-0.041 0-0.062 0-0.061 0.001-0.121 0.002-0.181 0.005-0.020 0.001-0.039 0.002-0.059 0.003l-0.058 0.004c-0.092 0.006-0.181 0.014-0.268 0.025-0.023 0.003-0.045 0.006-0.068 0.009-0.054 0.007-0.107 0.016-0.159 0.025-0.116 0.020-0.226 0.044-0.333 0.072-0.057 0.015-0.112 0.031-0.166 0.048-0.024 0.007-0.047 0.015-0.070 0.023-0.194 0.066-0.371 0.145-0.532 0.236-0.054 0.030-0.106 0.062-0.156 0.094-0.082 0.053-0.159 0.11-0.232 0.169-0.010 0.008-0.021 0.017-0.031 0.026-0.107 0.090-0.205 0.186-0.294 0.287-0.007 0.008-0.015 0.017-0.022 0.025-0.057 0.066-0.11 0.134-0.159 0.204-0.012 0.017-0.024 0.035-0.036 0.052-0.068 0.101-0.129 0.205-0.183 0.312-0.024 0.047-0.046 0.095-0.067 0.143-0.009 0.020-0.017 0.039-0.025 0.059-0.008 0.019-0.015 0.037-0.023 0.056-0.152 0.382-0.227 0.788-0.246 1.181-0.003 0.067-0.005 0.133-0.005 0.199l0 0.051c0 0.034 0.001 0.067 0.003 0.1 0.002 0.044 0.004 0.088 0.007 0.131 0.001 0.016 0.002 0.031 0.004 0.047 0.003 0.029 0.005 0.058 0.009 0.087 0.003 0.023 0.005 0.047 0.008 0.070 0.017 0.127 0.041 0.251 0.071 0.37 0.003 0.013 0.007 0.027 0.010 0.040 0.006 0.024 0.013 0.048 0.020 0.071 0.001 0.004 0.003 0.009 0.004 0.013 0.002 0.005 0.003 0.011 0.005 0.016l0.001 0.003c0.003 0.008 0.005 0.017 0.008 0.025 0.001 0.002 0.001 0.004 0.002 0.006 0.008 0.026 0.016 0.051 0.025 0.076 0.002 0.006 0.004 0.013 0.007 0.019 0.003 0.008 0.006 0.016 0.009 0.025 0.002 0.005 0.004 0.009 0.005 0.014 0.003 0.009 0.006 0.018 0.010 0.026 0.002 0.006 0.005 0.012 0.007 0.018l0.001 0.003c0.002 0.006 0.005 0.013 0.007 0.019 0.008 0.021 0.017 0.043 0.026 0.064 0.002 0.006 0.005 0.011 0.007 0.017s0.005 0.011 0.007 0.017c0.003 0.008 0.007 0.016 0.010 0.023 0.003 0.006 0.005 0.011 0.008 0.017 0.003 0.007 0.007 0.015 0.010 0.022 0.010 0.021 0.019 0.042 0.029 0.062 0.003 0.006 0.005 0.011 0.008 0.017 0.004 0.008 0.008 0.016 0.012 0.024 0.002 0.004 0.004 0.008 0.006 0.012 0.004 0.008 0.008 0.017 0.013 0.025l0 0c0.003 0.005 0.005 0.011 0.008 0.016 0.011 0.021 0.022 0.042 0.034 0.063 0.002 0.004 0.005 0.009 0.007 0.013 0.004 0.006 0.007 0.013 0.011 0.019s0.007 0.011 0.010 0.017c0.005 0.009 0.011 0.018 0.016 0.027 0.002 0.003 0.004 0.007 0.006 0.010 0.005 0.009 0.010 0.017 0.016 0.026 0.003 0.004 0.005 0.009 0.008 0.013 0.012 0.019 0.024 0.038 0.036 0.057 0.004 0.006 0.008 0.012 0.011 0.017s0.008 0.013 0.012 0.019c0.004 0.005 0.007 0.011 0.011 0.016 0.006 0.008 0.011 0.016 0.017 0.025 0.002 0.004 0.005 0.007 0.007 0.011 0.006 0.009 0.012 0.018 0.019 0.027 0.002 0.003 0.004 0.005 0.005 0.008 0.006 0.008 0.011 0.016 0.017 0.024 0.003 0.004 0.006 0.008 0.009 0.012 0.006 0.009 0.012 0.017 0.019 0.026 0.002 0.003 0.004 0.005 0.006 0.008l0.003 0.003c0.006 0.009 0.013 0.017 0.019 0.026 0.002 0.003 0.004 0.006 0.006 0.008 0.006 0.008 0.012 0.016 0.018 0.024 0.003 0.004 0.007 0.008 0.010 0.013 0.006 0.008 0.013 0.016 0.019 0.024 0.003 0.003 0.006 0.007 0.008 0.010 0.004 0.005 0.008 0.010 0.012 0.015l0.003 0.003c0.004 0.005 0.008 0.010 0.012 0.015 0.007 0.009 0.014 0.017 0.021 0.026l0.002 0.003c0.002 0.003 0.005 0.005 0.007 0.008 0.006 0.007 0.011 0.013 0.017 0.020 0.005 0.005 0.009 0.011 0.014 0.017s0.009 0.011 0.014 0.016l0 0c0.005 0.006 0.010 0.012 0.015 0.017s0.010 0.011 0.014 0.016c0.004 0.005 0.009 0.010 0.013 0.014 0.007 0.008 0.014 0.016 0.021 0.023 0.003 0.004 0.007 0.007 0.010 0.011 0.005 0.006 0.010 0.011 0.016 0.017 0.007 0.007 0.013 0.014 0.020 0.021 0.004 0.004 0.008 0.008 0.012 0.012l0.005 0.005c0.003 0.003 0.006 0.006 0.008 0.009 0.028 0.030 0.057 0.059 0.086 0.088 0.004 0.004 0.007 0.007 0.011 0.011 0.007 0.007 0.015 0.015 0.022 0.022 0.003 0.003 0.006 0.005 0.008 0.008 0.008 0.008 0.017 0.016 0.025 0.024 0.003 0.002 0.005 0.005 0.008 0.007 0.019 0.019 0.039 0.037 0.058 0.055 0.009 0.008 0.018 0.016 0.027 0.025 0.014 0.012 0.027 0.025 0.041 0.037 0.010 0.009 0.020 0.017 0.029 0.026 0.014 0.012 0.028 0.025 0.042 0.037 0.010 0.009 0.021 0.018 0.031 0.027l0.005 0.004c0.011 0.010 0.023 0.020 0.035 0.030s0.024 0.020 0.036 0.030l0.005 0.005c0.010 0.008 0.020 0.017 0.030 0.025 0.011 0.009 0.022 0.018 0.034 0.027l0.007 0.006c0.013 0.011 0.026 0.021 0.039 0.032 0.008 0.006 0.016 0.013 0.025 0.019 0.017 0.014 0.035 0.027 0.052 0.041 0.009 0.007 0.019 0.015 0.028 0.022 0.016 0.012 0.032 0.025 0.048 0.037 0.012 0.009 0.023 0.017 0.035 0.026 0.015 0.011 0.030 0.023 0.045 0.034 0.010 0.008 0.021 0.015 0.032 0.023 0.016 0.012 0.032 0.023 0.048 0.035 0.010 0.007 0.019 0.014 0.029 0.021 0.019 0.014 0.039 0.028 0.058 0.041 0.005 0.004 0.010 0.007 0.016 0.011 0.022 0.016 0.045 0.032 0.068 0.047 0.005 0.004 0.011 0.007 0.016 0.011 0.023 0.016 0.046 0.032 0.069 0.047 0.004 0.003 0.008 0.005 0.012 0.008 0.024 0.017 0.049 0.033 0.074 0.050 0.007 0.005 0.015 0.010 0.022 0.014 0.021 0.014 0.042 0.028 0.064 0.042 0.004 0.003 0.009 0.006 0.013 0.008 0.232 0.151 0.476 0.3 0.731 0.45 0.011 0.006 0.021 0.012 0.032 0.019 0.278 0.163 0.569 0.327 0.869 0.496 0.041 0.023 0.081 0.046 0.122 0.069l0.087 0.053c0.115 0.069 0.231 0.136 0.348 0.202 0.002 0.001 0.005 0.003 0.007 0.004 0.056 0.032 0.113 0.063 0.169 0.094 0.043 0.024 0.087 0.047 0.13 0.071 0.036 0.020 0.072 0.039 0.108 0.058 0.019 0.010 0.037 0.020 0.056 0.030 0.045 0.024 0.091 0.048 0.136 0.073 0.012 0.007 0.025 0.013 0.037 0.020 0.122 0.065 0.245 0.13 0.368 0.195 0.447 0.237 0.896 0.48 1.336 0.759l0.089 0.057 0.282 0.205c0.041 0.026 0.081 0.053 0.121 0.079 0.19 0.125 0.373 0.251 0.549 0.38 0.041 0.030 0.081 0.060 0.121 0.090 0.142 0.107 0.28 0.217 0.411 0.329 0.072 0.061 0.143 0.124 0.211 0.187 0.023 0.021 0.046 0.042 0.068 0.063s0.045 0.043 0.067 0.064c0.005 0.005 0.010 0.010 0.015 0.015 0.061 0.060 0.12 0.12 0.178 0.181 0.146 0.155 0.282 0.316 0.406 0.484 0.018 0.024 0.035 0.048 0.053 0.072 0.282 0.395 0.505 0.831 0.658 1.324 0.007 0.023 0.014 0.046 0.021 0.069 0.009 0.031 0.018 0.062 0.026 0.093 0.004 0.016 0.008 0.031 0.013 0.047 0.058 0.22 0.102 0.45 0.133 0.693 0.002 0.017 0.004 0.035 0.006 0.052s0.004 0.035 0.006 0.053c0.008 0.071 0.014 0.142 0.019 0.215 0.012 0.164 0.018 0.332 0.018 0.507 0 0.589-0.060 1.18-0.18 1.757-0.011 0.055-0.023 0.11-0.036 0.165-0.056 0.246-0.124 0.49-0.202 0.729-0.017 0.053-0.035 0.106-0.054 0.159-0.009 0.026-0.019 0.053-0.028 0.079s-0.019 0.052-0.029 0.079c-0.010 0.026-0.020 0.052-0.030 0.078s-0.020 0.052-0.031 0.078-0.021 0.052-0.031 0.078c-0.032 0.077-0.065 0.154-0.099 0.23-0.126 0.279-0.268 0.55-0.427 0.809-0.072 0.118-0.147 0.233-0.226 0.346-0.395 0.567-0.875 1.073-1.44 1.488-0.113 0.083-0.229 0.162-0.349 0.238-0.958 0.605-2.134 0.965-3.527 0.965-0.071 0-0.141-0.001-0.212-0.003-0.040-0.001-0.080-0.002-0.12-0.004-1.654-0.068-3.156-0.645-4.326-1.584-0.097-0.078-0.192-0.159-0.285-0.241-0.032-0.029-0.064-0.058-0.096-0.088-0.059-0.055-0.117-0.111-0.174-0.168-0.087-0.087-0.172-0.177-0.254-0.268-0.031-0.034-0.061-0.069-0.090-0.103-0.863-1.003-1.425-2.26-1.561-3.665-0.004-0.045-0.008-0.090-0.012-0.136-0.004-0.053-0.007-0.106-0.010-0.159-0.001-0.013-0.001-0.026-0.002-0.039s-0.001-0.026-0.002-0.039c-0.002-0.041-0.003-0.081-0.004-0.122-0.012 0.005-0.024 0.010-0.037 0.016-0.142 0.064-0.245 0.127-0.236 0.145l-0.502 0.371-0.386 0.259c-0.212 0.144-0.437 0.272-0.502 0.287-0.172 0.041-0.264-0.094-0.302-0.439-0.028-0.303-0.132-0.736-0.332-1.45-0.105-0.378-0.109-0.436-0.044-0.678 0.23-0.871 0.232-0.921 0.147-1.318-0.093-0.43-0.096-0.567-0.003-0.629 0.092-0.066 0.863 0.133 1.159 0.298 0.142 0.079 0.439 0.293 0.661 0.481 0.597 0.501 0.637 0.502 0.98-0.018 0.294-0.439 0.402-0.563 0.72-0.836 0.879-0.746 2.259-0.884 3.199-0.326 0.505 0.302 1.055 0.933 1.148 1.324 0.023 0.098 0.050 0.106 0.194 0.072 0.181-0.043 1.035-0.67 1.050-0.772 0 0 0.425-0.539 0.564-0.499s0.336 1.080 0.735 1.609c0.122 0.208 0.13 0.335 0.010 0.583-0.561 1.002-0.526 2.517-0.764 2.482s-0.799-0.564-0.799-0.564c-0.017-0.070-0.444-0.479-0.631-0.602-0.152-0.101-0.199-0.070-0.556 0.349-0.519 0.626-1.119 1.020-1.761 1.173-1.175 0.276-2.284-0.149-2.933-1.129 0.001 0.004 0.002 0.008 0.002 0.011 0.003 0.015 0.007 0.029 0.010 0.044 0.002 0.007 0.003 0.015 0.005 0.022l0.001 0.005 0.001 0.006c0.003 0.012 0.006 0.025 0.009 0.037 0.002 0.007 0.003 0.013 0.005 0.020 0.004 0.015 0.007 0.030 0.011 0.044 0.001 0.005 0.003 0.011 0.004 0.016l0.002 0.007c0.004 0.014 0.008 0.028 0.011 0.043 0.002 0.008 0.005 0.017 0.007 0.025 0.003 0.011 0.006 0.023 0.010 0.034 0.004 0.012 0.007 0.025 0.011 0.037 0.003 0.009 0.005 0.018 0.008 0.027s0.005 0.017 0.008 0.026l0.002 0.008c0.003 0.010 0.006 0.019 0.009 0.029 0.003 0.011 0.007 0.022 0.011 0.033s0.007 0.023 0.011 0.034c0.003 0.009 0.006 0.018 0.009 0.027 0.003 0.010 0.007 0.020 0.010 0.030 0.004 0.012 0.008 0.024 0.013 0.036 0.004 0.010 0.007 0.020 0.011 0.031s0.007 0.020 0.011 0.030c0.004 0.011 0.008 0.022 0.012 0.033s0.008 0.021 0.012 0.031c0.003 0.008 0.007 0.017 0.010 0.025 0.005 0.013 0.010 0.026 0.016 0.039 0.003 0.008 0.006 0.016 0.010 0.023 0.004 0.010 0.009 0.021 0.013 0.031s0.008 0.019 0.012 0.029c0.005 0.011 0.010 0.023 0.015 0.034 0.004 0.010 0.009 0.020 0.013 0.030s0.009 0.020 0.013 0.030c0.004 0.008 0.008 0.016 0.011 0.025 0.006 0.013 0.012 0.026 0.018 0.039 0.004 0.008 0.008 0.016 0.012 0.024 0.005 0.011 0.010 0.022 0.016 0.032 0.005 0.010 0.009 0.019 0.014 0.029s0.009 0.018 0.014 0.027c0.006 0.011 0.011 0.022 0.017 0.034 0.005 0.009 0.009 0.018 0.014 0.027s0.009 0.017 0.014 0.026c0.006 0.012 0.013 0.023 0.019 0.035 0.004 0.006 0.007 0.013 0.011 0.020 0.007 0.012 0.013 0.024 0.020 0.036 0.005 0.008 0.009 0.016 0.014 0.025 0.006 0.010 0.012 0.020 0.018 0.031 0.007 0.012 0.014 0.024 0.021 0.035l0.003 0.005c0.003 0.004 0.005 0.009 0.008 0.013 0.005 0.009 0.011 0.018 0.016 0.027l0.002 0.004c0.006 0.010 0.012 0.020 0.018 0.030 0.003 0.005 0.007 0.011 0.010 0.016l0.003 0.004c0.007 0.012 0.015 0.023 0.022 0.035 0.006 0.009 0.012 0.019 0.018 0.028 0.005 0.008 0.011 0.016 0.016 0.025 0.008 0.012 0.016 0.024 0.024 0.036 0.004 0.006 0.008 0.012 0.012 0.018 0.008 0.012 0.016 0.024 0.024 0.035l0.002 0.003c0.004 0.006 0.008 0.011 0.012 0.017 0.007 0.010 0.014 0.019 0.021 0.029s0.014 0.019 0.020 0.028c0.004 0.006 0.008 0.011 0.012 0.017l0.002 0.002 0.002 0.003c0.008 0.011 0.016 0.021 0.023 0.032 0.005 0.007 0.010 0.013 0.015 0.020 0.008 0.010 0.016 0.021 0.024 0.031 0.007 0.009 0.013 0.017 0.020 0.026s0.013 0.016 0.019 0.025c0.006 0.008 0.012 0.016 0.018 0.023 0.008 0.010 0.016 0.021 0.025 0.031 0.005 0.007 0.011 0.013 0.016 0.020l0.004 0.005c0.007 0.008 0.014 0.017 0.021 0.025 0.006 0.007 0.011 0.013 0.017 0.020l0.003 0.004c0.008 0.010 0.016 0.019 0.024 0.029 0.005 0.006 0.010 0.011 0.015 0.017 0.010 0.011 0.020 0.023 0.030 0.034 0.005 0.006 0.010 0.011 0.015 0.016l0.003 0.004c0.008 0.009 0.017 0.019 0.025 0.028 0.007 0.007 0.013 0.015 0.020 0.022l0.004 0.005c0.007 0.008 0.015 0.016 0.022 0.024 0.006 0.006 0.012 0.012 0.017 0.019 0.010 0.011 0.020 0.021 0.030 0.032 0.004 0.004 0.007 0.007 0.011 0.011l0 0.001c0.011 0.012 0.023 0.024 0.034 0.035 0.007 0.007 0.014 0.014 0.021 0.021l0.003 0.003c0.008 0.008 0.016 0.016 0.024 0.024 0.005 0.005 0.010 0.010 0.015 0.014l0.007 0.006c0.009 0.009 0.018 0.018 0.028 0.027 0.005 0.004 0.009 0.009 0.014 0.013 0.028 0.027 0.056 0.053 0.085 0.080 0.025 0.023 0.050 0.045 0.076 0.068 0.064 0.056 0.129 0.111 0.196 0.164 0.051 0.040 0.102 0.080 0.155 0.119 0.009 0.007 0.019 0.014 0.028 0.021s0.018 0.013 0.027 0.020c0.009 0.007 0.018 0.013 0.027 0.020l0.007 0.005c0.008 0.005 0.015 0.011 0.023 0.016s0.016 0.011 0.023 0.016l0.007 0.005c0.010 0.007 0.020 0.014 0.029 0.020 0.008 0.006 0.017 0.011 0.025 0.017 0.011 0.008 0.023 0.016 0.034 0.023 0.003 0.002 0.006 0.004 0.008 0.006 0.017 0.011 0.034 0.022 0.051 0.033 0.009 0.006 0.018 0.012 0.027 0.017 0.011 0.007 0.022 0.014 0.032 0.021 0.012 0.008 0.024 0.015 0.037 0.023 0.008 0.005 0.015 0.009 0.023 0.014 0.013 0.008 0.026 0.015 0.038 0.023 0.008 0.005 0.016 0.010 0.025 0.015s0.016 0.010 0.025 0.015l0.006 0.004 0.005 0.003c0.010 0.006 0.019 0.011 0.029 0.017s0.018 0.010 0.027 0.015l0.007 0.004c0.008 0.005 0.016 0.009 0.025 0.014 0.010 0.006 0.020 0.011 0.030 0.017l0.006 0.004c0.011 0.006 0.021 0.012 0.032 0.018 0.009 0.005 0.018 0.010 0.027 0.015 0.012 0.007 0.025 0.013 0.037 0.020 0.010 0.006 0.021 0.011 0.031 0.016l0.003 0.001c0.010 0.005 0.020 0.011 0.030 0.016s0.020 0.010 0.029 0.015l0.007 0.004c0.009 0.005 0.019 0.010 0.028 0.014 0.014 0.007 0.028 0.014 0.041 0.021l0.007 0.004c0.005 0.003 0.011 0.005 0.016 0.008 0.012 0.006 0.024 0.012 0.036 0.017s0.024 0.011 0.036 0.017c0.010 0.005 0.019 0.009 0.029 0.014 0.012 0.006 0.024 0.011 0.036 0.017 0.014 0.006 0.028 0.013 0.042 0.019 0.009 0.004 0.017 0.008 0.026 0.012 0.014 0.006 0.029 0.013 0.043 0.019 0.009 0.004 0.017 0.008 0.026 0.011 0.014 0.006 0.029 0.012 0.043 0.018 0.010 0.004 0.020 0.008 0.030 0.013 0.013 0.005 0.026 0.011 0.039 0.016 0.010 0.004 0.020 0.008 0.030 0.012 0.014 0.006 0.029 0.012 0.043 0.017 0.010 0.004 0.020 0.008 0.030 0.012 0.012 0.005 0.024 0.009 0.036 0.014s0.024 0.009 0.036 0.014c0.010 0.004 0.020 0.007 0.029 0.011l0.005 0.002c0.014 0.005 0.027 0.010 0.041 0.015s0.028 0.010 0.042 0.015c0.008 0.003 0.016 0.006 0.024 0.009 0.016 0.006 0.031 0.011 0.047 0.017 0.011 0.004 0.022 0.008 0.033 0.011 0.013 0.004 0.026 0.009 0.039 0.013s0.025 0.008 0.037 0.012c0.014 0.005 0.029 0.009 0.043 0.014 0.009 0.003 0.018 0.006 0.027 0.009 0.015 0.005 0.030 0.010 0.045 0.014 0.012 0.004 0.024 0.007 0.036 0.011 0.014 0.004 0.028 0.009 0.042 0.013 0.011 0.003 0.022 0.007 0.033 0.010 0.014 0.004 0.029 0.009 0.044 0.013 0.010 0.003 0.020 0.006 0.030 0.009l0.004 0.001c0.014 0.004 0.028 0.008 0.042 0.012 0.012 0.003 0.023 0.006 0.035 0.010 0.017 0.005 0.033 0.009 0.050 0.013 0.008 0.002 0.016 0.004 0.024 0.006 0.017 0.004 0.034 0.009 0.051 0.013 0.011 0.003 0.023 0.006 0.034 0.009 0.015 0.004 0.029 0.007 0.044 0.011 0.013 0.003 0.027 0.006 0.040 0.010 0.015 0.004 0.029 0.007 0.044 0.010 0.009 0.002 0.018 0.004 0.026 0.006 0.019 0.004 0.038 0.009 0.057 0.013 0.010 0.002 0.019 0.004 0.029 0.006 0.016 0.003 0.032 0.007 0.047 0.010 0.013 0.003 0.026 0.006 0.039 0.008l0.001 0 0.016 0.003c0.009 0.002 0.017 0.004 0.026 0.005 0.013 0.003 0.027 0.005 0.041 0.008s0.029 0.006 0.043 0.008c0.009 0.002 0.019 0.004 0.029 0.005l0.008 0.002c0.016 0.003 0.033 0.006 0.049 0.009 0.006 0.001 0.011 0.002 0.017 0.003l0.015 0.003c0.018 0.003 0.036 0.006 0.055 0.010 0.011 0.002 0.023 0.004 0.034 0.006 0.015 0.003 0.031 0.005 0.046 0.008s0.030 0.005 0.045 0.007c0.014 0.002 0.029 0.005 0.043 0.007 0.011 0.002 0.022 0.003 0.033 0.005 0.020 0.003 0.039 0.006 0.059 0.009 0.006 0.001 0.013 0.002 0.019 0.003 0.021 0.003 0.043 0.006 0.064 0.009 0.009 0.001 0.018 0.002 0.027 0.003 0.021 0.003 0.042 0.006 0.064 0.008 0.008 0.001 0.016 0.002 0.024 0.003 0.020 0.002 0.039 0.005 0.059 0.007 0.009 0.001 0.019 0.002 0.028 0.003l0.009 0.001c0.018 0.002 0.037 0.004 0.056 0.006 0.006 0.001 0.011 0.001 0.017 0.002l0.004 0c0.023 0.002 0.046 0.005 0.069 0.007 0.003 0 0.006 0.001 0.009 0.001l0.007 0.001c0.025 0.002 0.050 0.005 0.076 0.007 0.004 0 0.008 0.001 0.012 0.001 0.024 0.002 0.048 0.004 0.072 0.006 0.012 0.001 0.024 0.002 0.035 0.003 0.080 0.006 0.161 0.011 0.243 0.015 0.006 0 0.012 0.001 0.019 0.001l0.010 0.001c0.177 0.009 0.357 0.013 0.54 0.013 0.032 0 0.063-0 0.095-0 0.534-0.004 1.033-0.047 1.496-0.121 0.109-0.018 0.216-0.037 0.322-0.058s0.209-0.044 0.31-0.068c0.025-0.006 0.051-0.012 0.076-0.019 0.075-0.019 0.15-0.039 0.223-0.060 0.052-0.015 0.103-0.030 0.153-0.045 1.023-0.315 1.821-0.809 2.391-1.397 0.013-0.014 0.027-0.027 0.040-0.041 0.444-0.47 0.744-0.999 0.898-1.544 0.009-0.032 0.018-0.064 0.026-0.096 0.012-0.048 0.023-0.097 0.033-0.145 0.007-0.032 0.013-0.065 0.018-0.097 0.003-0.016 0.005-0.032 0.008-0.049 0.008-0.049 0.014-0.097 0.019-0.146 0.002-0.016 0.003-0.032 0.005-0.049 0.005-0.049 0.008-0.097 0.010-0.146 0.001-0.016 0.001-0.032 0.002-0.049 0.001-0.033 0.002-0.065 0.002-0.097 0-0.012-0-0.024-0-0.037-0-0.024-0.001-0.049-0.002-0.073-0.002-0.048-0.005-0.096-0.010-0.143-0.006-0.059-0.014-0.118-0.023-0.176-0.006-0.035-0.013-0.069-0.020-0.104-0.002-0.011-0.005-0.023-0.007-0.034s-0.005-0.023-0.008-0.034c-0.16-0.663-0.581-1.244-1.171-1.771-0.017-0.015-0.034-0.030-0.051-0.045-0.010-0.008-0.019-0.017-0.029-0.025-0.041-0.036-0.084-0.071-0.127-0.107-0.056-0.046-0.113-0.092-0.172-0.137-0.024-0.019-0.048-0.037-0.073-0.056-0.153-0.116-0.313-0.229-0.48-0.34-0.050-0.033-0.1-0.066-0.151-0.099-0.025-0.016-0.051-0.033-0.076-0.049-0.029-0.018-0.057-0.036-0.086-0.054-0.196-0.122-0.4-0.242-0.609-0.36l-0.084-0.047-0.282-0.154c-0.128-0.074-0.257-0.145-0.388-0.216-0.163-0.088-0.328-0.173-0.494-0.257-0.1-0.050-0.2-0.1-0.3-0.15-0.067-0.033-0.134-0.066-0.202-0.099-0.337-0.164-0.678-0.327-1.021-0.497-0.103-0.051-0.206-0.102-0.309-0.154-0.034-0.017-0.069-0.035-0.103-0.052-0.138-0.070-0.275-0.142-0.413-0.216-0.043-0.023-0.086-0.047-0.129-0.070s-0.086-0.047-0.129-0.070c-0.028-0.015-0.055-0.030-0.082-0.045-0.228-0.126-0.452-0.253-0.671-0.382-0.164-0.096-0.324-0.194-0.482-0.293-0.039-0.025-0.079-0.050-0.118-0.074-0.799-0.51-1.512-1.055-2.077-1.661-0.028-0.030-0.055-0.059-0.082-0.089-0.108-0.119-0.21-0.241-0.305-0.366-0.024-0.031-0.048-0.062-0.071-0.094-0.070-0.094-0.136-0.19-0.198-0.287-0.021-0.032-0.041-0.065-0.061-0.098-0.010-0.016-0.020-0.033-0.030-0.049-0.020-0.033-0.039-0.066-0.057-0.099-0.009-0.017-0.019-0.033-0.028-0.050-0.018-0.034-0.036-0.067-0.053-0.101-0.009-0.017-0.017-0.034-0.026-0.051-0.017-0.034-0.033-0.068-0.050-0.103s-0.032-0.069-0.047-0.104c-0.023-0.052-0.044-0.105-0.065-0.158-0.007-0.018-0.014-0.035-0.020-0.053-0.013-0.036-0.026-0.071-0.039-0.107-0.006-0.018-0.012-0.036-0.018-0.054-0.036-0.109-0.067-0.219-0.094-0.331-0.013-0.056-0.026-0.113-0.037-0.17-0.034-0.171-0.057-0.347-0.069-0.527-0.007-0.1-0.010-0.202-0.010-0.305 0-0.034 0-0.067 0.001-0.101 0.002-0.084 0.006-0.168 0.013-0.253 0.049-0.623 0.23-1.241 0.557-1.8 0.018-0.030 0.036-0.060 0.054-0.090 0.056-0.090 0.115-0.177 0.179-0.263 0.011-0.014 0.021-0.029 0.032-0.043 0.043-0.057 0.088-0.113 0.135-0.168 0.023-0.028 0.047-0.055 0.072-0.082 0.012-0.014 0.024-0.027 0.037-0.040 0.025-0.027 0.050-0.053 0.076-0.080 0.038-0.040 0.078-0.078 0.118-0.117s0.082-0.076 0.124-0.113c0.043-0.037 0.086-0.074 0.131-0.109 0.015-0.012 0.030-0.024 0.045-0.036 0.030-0.024 0.061-0.047 0.092-0.070 0.016-0.012 0.031-0.023 0.047-0.034 0.047-0.034 0.096-0.067 0.145-0.1 0.034-0.022 0.068-0.044 0.103-0.066 0.050-0.031 0.101-0.061 0.154-0.091s0.107-0.059 0.162-0.088c0.055-0.028 0.112-0.056 0.169-0.083 0.077-0.036 0.155-0.070 0.235-0.103 0.020-0.008 0.040-0.016 0.061-0.024 0.041-0.016 0.082-0.032 0.124-0.047s0.084-0.030 0.127-0.044 0.086-0.028 0.129-0.042c0.065-0.020 0.132-0.040 0.2-0.058 0.113-0.031 0.229-0.058 0.348-0.083 0.095-0.020 0.193-0.038 0.292-0.054 0.224-0.037 0.458-0.064 0.702-0.080 0.027-0.002 0.055-0.004 0.082-0.005 0.055-0.003 0.11-0.006 0.166-0.008 0.112-0.004 0.226-0.007 0.342-0.007l0.103 0.001zM24.086 16.736c0.086 1.206 0.392 2.558 0.646 2.843 0.179 0.209 0.458 0.114 0.517-0.166 0.087-0.435-0.014-0.942-0.314-1.559-0.197-0.403-0.627-1.102-0.776-1.267l-0.090-0.095 0.017 0.244zM11.748 12.093l1.274 0.724c0.488 0.301 0.915 0.609 1.264 0.931v4.081c-0.58 0.564-1.421 1.037-2.549 1.296v-7.037c0.004 0.002 0.008 0.004 0.011 0.006zM6.231 13.734c-0.174-0.131-0.326-0.129-0.212-0.003 0.096 0.115 0.185 0.526 0.153 0.721-0.013 0.091-0.107 0.291-0.213 0.444-0.427 0.643-1.005 0.84-1.879 0.641l-0.395-0.088 0.107 0.117c0.225 0.241 0.86 0.591 1.229 0.675 0.349 0.079 0.382 0.076 0.89-0.045l0.531-0.127 0.096-0.195c0.14-0.279 0.221-0.948 0.159-1.331-0.061-0.359-0.208-0.624-0.464-0.809zM6.74 12.983c-0.159-0.046-0.667-0.032-0.774 0.013-0.146 0.069-0.339 0.209-0.426 0.318-0.085 0.099-0.083 0.104 0.168 0.063 0.313-0.050 0.573 0.050 0.85 0.323 0.499 0.481 0.669 1.173 0.457 1.808-0.041 0.118-0.073 0.229-0.070 0.243 0.004 0.019 0.084-0.040 0.172-0.125 0.226-0.206 0.503-0.715 0.607-1.104 0.069-0.267 0.070-0.366 0.008-0.626-0.121-0.507-0.405-0.769-0.991-0.914zM8.904 14.767c-0.371-0.113-0.4-0.086-0.122 0.088 0.134 0.086 0.438 0.328 0.685 0.539 0.422 0.366 0.439 0.377 0.369 0.207-0.185-0.423-0.51-0.714-0.933-0.834zM2.308 14.671c-0.007-0.028-0.165-0.010-0.374 0.040-0.316 0.076-0.4 0.115-0.622 0.301-0.23 0.192-0.395 0.448-0.315 0.493 0.052 0.032 0.374-0.163 0.77-0.464 0.205-0.152 0.413-0.29 0.459-0.301 0.051-0.012 0.087-0.045 0.082-0.069zM3.838 12.634c-0.079 0.019-0.501 0.828-0.559 1.078-0.177 0.74 0.196 1.335 0.949 1.519 0.354 0.083 0.853 0.008 1.161-0.184 0.304-0.191 0.337-0.277 0.078-0.23-0.485 0.091-1.023-0.203-1.336-0.733-0.197-0.331-0.285-0.699-0.269-1.126 0.005-0.183-0.005-0.328-0.023-0.324zM25.293 13.195c0.207-0.701 0.073-1.265-0.27-1.14-0.334 0.125-0.635 1.025-0.863 2.568-0.062 0.417-0.074 0.573-0.046 0.573 0.064 0.001 0.557-0.727 0.827-1.215 0.141-0.26 0.296-0.613 0.351-0.786zM5.74 11.949c-0.598-0.073-1.447 0.183-1.519 0.456-0.095 0.362 0.022 1.14 0.247 1.608 0.078 0.163 0.174 0.273 0.332 0.378 0.123 0.084 0.234 0.136 0.24 0.12 0.011-0.017-0.022-0.113-0.080-0.212-0.15-0.279-0.107-0.53 0.173-0.985 0.311-0.512 0.505-0.666 0.98-0.78 0.205-0.049 0.482-0.081 0.617-0.074s0.254 0.013 0.268 0.010c0.009-0.002-0.086-0.073-0.209-0.152-0.295-0.185-0.688-0.327-1.048-0.369zM1.477 13.955c-0.248-0.029-0.872 0.12-1.001 0.239-0.078 0.072-0.098 0.070-0.101 0.069 0.001 0.001 0.003 0.006 0.004 0.018 0.002 0.066 0.167 0.019 0.167 0.019l0.577-0.035c0 0 1.128-0.137 1.144-0.155 0.014-0.023-0.492-0.123-0.79-0.155zM10.357 13.742c-0.015-0.064-0.166 0.012-0.168 0.013l-0.56 0.143c-0.006 0.002-1.082 0.347-1.094 0.368-0.010 0.025 0.506 0.028 0.805 0.003 0.249-0.018 0.833-0.282 0.937-0.424 0.062-0.085 0.082-0.087 0.086-0.087-0.001-0.001-0.004-0.005-0.007-0.017zM1.148 12.721c-0.19-0.117-0.371-0.192-0.426-0.178-0.126 0.030-0.119 0.038 0.082 0.241 0.244 0.237 1.46 1.087 1.442 1.008-0.004-0.019-0.134-0.212-0.135-0.214 0 0-0.587-0.622-0.963-0.857zM9.772 12.574c-0.012-0.007-0.098 0.082-0.195 0.194-0.202 0.245-0.877 0.819-0.988 0.846-0.042 0.010-0.084 0.040-0.093 0.062-0.020 0.059 0.562-0.159 0.718-0.27 0.219-0.155 0.447-0.436 0.514-0.629 0.034-0.106 0.057-0.195 0.045-0.202z"></path>
<path d="M137.756 19.414v-5.833h-1.72v-0.21h0.278c1.755 0 2.38-2.061 2.398-3.824h0.225v3.824h0.451c1.181 0 2.085-0.052 2.606-0.157l-0.156 0.367h-2.901c0.017 1.764 0.903 2.829 1.703 3.789 0.677 0.838 1.302 1.589 1.302 2.602 0 0.908-0.607 1.991-2.084 1.991-1.372 0-2.102-0.943-2.102-2.55zM138.937 14.978v4.68c0 1.467 0.713 1.886 1.355 1.886 0.678 0 1.442-0.471 1.442-1.572 0-0.943-0.591-1.659-1.25-2.445-0.591-0.699-1.217-1.484-1.547-2.55z"></path>
<path d="M126.782 21.562h1.372v-7.754c-0.625 0.175-1.372 0.21-1.372 0.21v-0.21c1.129-0.070 1.928-0.384 2.553-0.681v0.995c1.025-0.716 1.963-0.96 2.605-0.96 2.485 0 2.641 1.816 2.641 3.231v5.169h1.372v0.21h-9.171v-0.21zM133.4 21.562v-5.448c0-2.427-1.164-2.637-1.876-2.637-0.729 0-1.633 0.506-2.189 0.908v7.177h4.065z"></path>
<path d="M125.258 16.34h-5.507c-0.035 0.314-0.052 0.629-0.052 0.978 0 3.58 1.442 4.436 2.606 4.436 2.223 0 3.543-2.235 3.543-4.75 0-0.524-0.070-1.083-0.209-1.624l0.209-0.070c0.138 0.559 0.208 1.17 0.208 1.694 0 2.619-1.389 4.96-3.751 4.96-1.755 0-3.978-1.083-3.978-4.401 0-2.462 1.424-4.401 3.786-4.401 2.155 0 3.127 1.641 3.145 3.178zM121.975 13.371c-1.077 0-1.928 1.083-2.188 2.759h4.169c-0.017-1.484-0.608-2.759-1.981-2.759z"></path>
<path d="M110.495 21.771v-0.244l5.228-7.946h-1.146c-1.633 0-2.675 0.070-3.3 0.332l-0.139 3.248h-0.191l0.121-3.79h5.993v0.21l-5.177 7.981h1.251c1.545 0 2.901-0.035 3.595-0.367l0.139-3.196h0.209l-0.156 3.772h-6.427z"></path>
<path d="M109.075 16.34h-5.506c-0.035 0.314-0.052 0.629-0.052 0.978 0 3.58 1.441 4.436 2.605 4.436 2.223 0 3.543-2.235 3.543-4.75 0-0.524-0.069-1.083-0.208-1.624l0.208-0.070c0.139 0.559 0.209 1.17 0.209 1.694 0 2.619-1.389 4.96-3.752 4.96-1.755 0-3.978-1.083-3.978-4.401 0-2.462 1.425-4.401 3.787-4.401 2.154 0 3.127 1.641 3.144 3.178zM105.792 13.371c-1.077 0-1.928 1.083-2.189 2.759h4.169c-0.017-1.484-0.608-2.759-1.98-2.759z"></path>
<path d="M94.84 21.771v-0.21h1.373v-7.754c-0.643 0.157-1.373 0.21-1.373 0.21v-0.21c1.147-0.087 1.911-0.384 2.554-0.681v1.694c0.469-0.978 1.251-1.659 2.119-1.659 0.469 0 0.817 0.192 1.077 0.384l-0.017-0.384h0.225l0.087 4.663h-0.191l-0.087-3.266c0-0.489-0.417-1.188-1.181-1.188-1.199 0-2.032 1.589-2.032 3.039v5.152h1.545v0.21h-4.099z"></path>
<path d="M85.489 21.771v-0.21h1.72v-12.207h-1.72v-0.21h2.311c4.394 0 6.201 1.484 6.201 3.353 0 1.659-1.65 3.667-4.69 5.239-0.173 0.559-0.399 1.1-0.66 1.677v2.148h1.737v0.21h-4.899zM87.729 9.355h-0.104c1.529 1.030 2.258 2.846 2.258 4.959 0 0.995-0.173 2.078-0.486 3.143 2.223-1.292 3.179-3.004 3.179-4.488 0-1.973-1.633-3.615-4.847-3.615zM88.65 10.647v8.26c0.695-1.589 1.025-3.143 1.025-4.593 0-1.414-0.331-2.672-1.025-3.667z"></path>
<path d="M77.385 21.562h1.373v-7.754c-0.487 0.157-1.373 0.21-1.373 0.21v-0.21c1.043-0.070 1.911-0.367 2.553-0.681v8.435h1.373v0.21h-3.926v-0.21zM79.313 12.324h-0.139c-0.209-0.821-0.591-1.065-1.164-1.118v-0.157c0.573-0.052 0.955-0.279 1.164-1.118h0.139c0.225 0.838 0.573 1.065 1.163 1.118v0.157c-0.591 0.052-0.938 0.297-1.163 1.118z"></path>
<path d="M67.92 21.562h1.372v-12.853c-0.555 0.157-1.372 0.21-1.372 0.21v-0.21c1.059-0.070 1.824-0.297 2.553-0.664v11.648c1.32-2.13 2.727-4.156 4.325-6.112h-1.511v-0.21h3.196v0.21h-1.441c-0.834 1.030-1.633 2.078-2.397 3.196l3.213 4.785h1.233v0.209h-3.995v-0.209h1.355l-2.501-3.755c-0.851 1.292-1.685 2.637-2.467 3.964h-1.563v-0.209z"></path>
<path d="M64.772 21.771v-0.908c-0.538 0.541-1.476 1.1-2.571 1.1-1.39 0-3.839-0.891-3.839-4.313 0-2.724 2.015-4.488 4.308-4.488 1.112 0 1.789 0.541 2.102 0.821v-5.274c-0.556 0.157-1.372 0.21-1.372 0.21v-0.21c1.025-0.052 1.945-0.349 2.553-0.664v13.516h1.372v0.209h-2.553zM64.772 20.584v-6.304c-0.608-0.611-1.233-0.908-2.050-0.908-1.945 0-2.988 1.449-2.988 4.139 0 3.3 1.633 4.139 2.797 4.156 1.060-0.017 1.893-0.733 2.241-1.083z"></path>
<path d="M53.063 21.963c-2.345 0-4.065-1.711-4.065-4.383 0-2.951 1.72-4.418 4.065-4.418 2.328 0 4.065 1.345 4.065 4.418 0 2.637-1.737 4.383-4.065 4.383zM53.063 21.754c1.355 0 2.692-0.96 2.692-4.174 0-3.231-1.337-4.209-2.692-4.209-1.372 0-2.692 0.978-2.692 4.209 0 3.213 1.32 4.174 2.692 4.174z"></path>
<path d="M44.086 21.771v-0.209h1.372v-6.322l-1.251 0.751-0.122-0.192 1.372-0.838v-6.252c-0.573 0.175-1.372 0.21-1.372 0.21v-0.21c1.094-0.070 1.893-0.349 2.553-0.664v6.199l1.233-0.751 0.122 0.192-1.355 0.821v7.055h1.372v0.209h-3.926z"></path>
<path d="M35.503 15.432l0.139 0.157c-0.799 1.153-1.164 2.253-1.164 3.213 0 2.078 1.702 3.615 4.516 3.615 2.745 0 4.152-1.467 4.152-2.881 0-1.065-0.938-1.834-2.154-2.515l-0.295 1.257h-0.208l0.313-1.362c-0.695-0.402-1.442-0.716-2.189-1.118-1.876-1.013-3.422-2.148-3.422-3.947 0-1.467 1.042-2.986 3.561-2.986 1.494 0 2.64 0.576 3.474 1.449l0.295-1.292h0.278l-1.494 6.549c1.268 0.821 2.102 1.711 2.102 3.405 0 2.445-1.511 4.959-4.534 4.959-2.692 0-4.846-1.991-4.846-4.628 0-1.187 0.452-2.515 1.476-3.877zM41.113 15.432l0.973-4.471c-0.261-0.437-1.112-1.886-3.335-1.886-1.789 0-2.328 1.205-2.328 2.218 0 1.484 1.199 2.165 2.745 3.039 0.625 0.384 1.303 0.681 1.945 1.1z"></path>
</symbol>
<symbol id="icon-mail" viewBox="0 0 32 32">
<path stroke-linejoin="miter" stroke-linecap="butt" stroke-miterlimit="4" stroke-width="1.3333" d="M4.072 7.656v17.605h23.857v-17.077l-11.642 7.664c-0.080 0.042-0.15 0.076-0.211 0.1-0.004 0.001-0.027 0.008-0.075 0.008s-0.072-0.007-0.075-0.008c-0.061-0.024-0.131-0.058-0.212-0.1l-10.307-6.788v-0.533l10.595 6.94 12.841-8.387c0.021 0.104 0.033 0.211 0.033 0.323v17.19c0 0.428-0.15 0.793-0.482 1.124s-0.698 0.48-1.13 0.48h-22.523c-0.429 0-0.793-0.15-1.124-0.48l-0.116-0.125c-0.25-0.297-0.365-0.623-0.365-0.999v-17.19c0-0.118 0.012-0.231 0.035-0.34l0.902 0.591zM4.738 5.793h22.523c0.431 0 0.797 0.151 1.129 0.483h0.001c0.146 0.146 0.255 0.3 0.333 0.462h-25.444c0.078-0.163 0.187-0.317 0.333-0.464h0.001c0.331-0.332 0.694-0.482 1.122-0.482z"></path>
</symbol>
<symbol id="icon-map" viewBox="0 0 32 32">
<path stroke-linejoin="miter" stroke-linecap="butt" stroke-miterlimit="4" stroke-width="1.3333" d="M16 3.126c2.699 0 5.071 0.939 7.141 2.844 2.031 1.869 3.066 4.38 3.066 7.607-0 1.314-0.289 2.627-0.879 3.944-0.605 1.351-1.363 2.645-2.277 3.883-0.922 1.248-1.923 2.413-3.004 3.495-1.097 1.098-2.121 2.069-3.069 2.914l-0.008 0.007-0.006 0.006c-0.121 0.114-0.26 0.197-0.423 0.25-0.195 0.063-0.378 0.093-0.551 0.093s-0.351-0.029-0.537-0.091c-0.154-0.051-0.285-0.131-0.4-0.243l-0.012-0.012-0.013-0.010c-0.953-0.844-1.979-1.815-3.076-2.913-1.081-1.081-2.082-2.247-3.004-3.495-0.914-1.237-1.672-2.531-2.273-3.881-0.587-1.318-0.875-2.631-0.875-3.945 0-3.227 1.035-5.738 3.064-7.607 2.067-1.904 4.436-2.844 7.135-2.844zM16 4.072c-2.58 0-4.787 0.892-6.576 2.671-1.799 1.79-2.686 4.088-2.686 6.835 0 1.893 0.792 3.945 2.264 6.138 1.473 2.194 3.661 4.633 6.543 7.314l0.449 0.418 0.453-0.411c2.95-2.677 5.161-5.118 6.604-7.322 1.438-2.196 2.209-4.248 2.21-6.137 0-2.747-0.887-5.045-2.686-6.835v-0.001c-1.789-1.779-3.995-2.669-6.575-2.669zM15.997 11.603c0.488 0 0.885 0.164 1.228 0.505s0.505 0.735 0.505 1.223c-0 0.488-0.164 0.883-0.504 1.223s-0.735 0.503-1.224 0.503c-0.489-0-0.884-0.164-1.223-0.501s-0.503-0.729-0.503-1.217c0-0.429 0.126-0.787 0.384-1.099l0.119-0.13c0.337-0.341 0.73-0.505 1.217-0.505z"></path>
</symbol>
<symbol id="icon-minus" viewBox="0 0 32 32">
<path d="M5.699 16.907c0.244 0.245 0.545 0.368 0.904 0.368h18.784c0.358 0 0.661-0.121 0.908-0.362s0.371-0.542 0.371-0.902c0-0.36-0.124-0.663-0.371-0.909s-0.55-0.368-0.908-0.368h-18.784c-0.359 0-0.66 0.121-0.904 0.362s-0.366 0.542-0.366 0.902c0 0.36 0.122 0.663 0.366 0.909z"></path>
</symbol>
<symbol id="icon-next" viewBox="0 0 32 32">
<path fill="#734f41" style="fill: var(--color1, #734f41)" d="M17.475 15.967l-5.804-5.804c-0.227-0.227-0.334-0.492-0.323-0.796s0.13-0.569 0.357-0.796c0.227-0.227 0.497-0.34 0.812-0.34s0.586 0.113 0.812 0.34l6.592 6.592c0.122 0.122 0.21 0.249 0.265 0.381s0.083 0.273 0.083 0.422-0.027 0.29-0.083 0.422c-0.055 0.133-0.143 0.26-0.265 0.381l-6.625 6.625c-0.227 0.227-0.492 0.335-0.796 0.323s-0.569-0.13-0.796-0.357-0.34-0.497-0.34-0.812c0-0.315 0.113-0.586 0.34-0.812l5.771-5.771z"></path>
</symbol>
<symbol id="icon-phone" viewBox="0 0 32 32">
<path stroke-linejoin="miter" stroke-linecap="butt" stroke-miterlimit="4" stroke-width="1.3333" d="M5.492 4.46h4.667c0.245 0 0.415 0.073 0.555 0.204 0.125 0.117 0.229 0.27 0.307 0.471l0.069 0.217 0.887 4.018c0.044 0.309 0.034 0.556-0.013 0.751-0.042 0.175-0.124 0.319-0.257 0.445l-0.009 0.008-3.729 3.678 0.267 0.448c0.569 0.956 1.174 1.853 1.814 2.687 0.644 0.839 1.359 1.637 2.143 2.393 0.818 0.844 1.673 1.611 2.565 2.298 0.9 0.693 1.841 1.3 2.822 1.819l0.441 0.233 3.568-3.661c0.186-0.202 0.382-0.323 0.59-0.385 0.175-0.052 0.348-0.070 0.522-0.057l0.176 0.023 3.76 0.832c0.221 0.061 0.397 0.157 0.539 0.283l0.133 0.137c0.156 0.188 0.232 0.399 0.232 0.658v4.547c0 0.316-0.099 0.545-0.29 0.734-0.195 0.193-0.426 0.29-0.734 0.29-2.5 0-5.061-0.6-7.686-1.82-2.624-1.219-5.065-2.953-7.323-5.211-2.116-2.116-3.773-4.395-4.979-6.836l-0.236-0.491c-1.223-2.629-1.824-5.188-1.824-7.682 0-0.237 0.055-0.427 0.164-0.589l0.128-0.152c0.192-0.193 0.421-0.292 0.733-0.292zM5.422 6.1c0.041 0.951 0.191 1.948 0.444 2.991 0.255 1.051 0.655 2.21 1.194 3.475l0.385 0.905 3.648-3.628-0.077-0.355-0.758-3.556-0.113-0.527h-4.754l0.030 0.695zM26.595 21.836l-4.207-0.87-0.257 0.267-3.259 3.415 0.844 0.393c0.927 0.431 1.931 0.78 3.010 1.051 1.081 0.271 2.137 0.434 3.168 0.486l0.701 0.035v-4.777z"></path>
</symbol>
<symbol id="icon-plus" viewBox="0 0 32 32">
<path d="M14.725 17.275h-8.122c-0.359 0-0.66-0.123-0.904-0.368s-0.366-0.548-0.366-0.909c0-0.36 0.122-0.661 0.366-0.902s0.545-0.362 0.904-0.362h8.122v-8.122c0-0.358 0.123-0.661 0.368-0.908s0.548-0.371 0.909-0.371c0.36 0 0.661 0.124 0.902 0.371s0.362 0.55 0.362 0.908v8.122h8.122c0.358 0 0.661 0.123 0.908 0.368s0.371 0.548 0.371 0.909c0 0.36-0.124 0.661-0.371 0.902s-0.55 0.362-0.908 0.362h-8.122v8.122c0 0.359-0.123 0.66-0.368 0.904s-0.548 0.366-0.909 0.366c-0.36 0-0.661-0.122-0.902-0.366s-0.362-0.545-0.362-0.904v-8.122z"></path>
</symbol>
<symbol id="icon-present" viewBox="0 0 32 32">
<path d="M5.134 27.262v-12.363h-0.667c-0.55 0-1.021-0.196-1.412-0.588s-0.588-0.862-0.588-1.412v-3.93c0-0.624 0.221-1.159 0.663-1.604s0.978-0.667 1.608-0.667h5.158c-0.167-0.267-0.295-0.548-0.384-0.845s-0.133-0.601-0.133-0.914c0-1.058 0.371-1.958 1.114-2.7s1.645-1.113 2.707-1.113c0.533 0 1.049 0.107 1.546 0.321s0.915 0.527 1.254 0.939c0.339-0.406 0.758-0.718 1.258-0.935s1.017-0.325 1.55-0.325c1.059 0 1.959 0.371 2.701 1.113s1.112 1.642 1.112 2.7c0 0.314-0.043 0.618-0.129 0.913s-0.216 0.577-0.388 0.846h5.158c0.632 0 1.17 0.222 1.614 0.667s0.665 0.98 0.665 1.604v3.93c0 0.55-0.197 1.021-0.592 1.412s-0.864 0.588-1.408 0.588h-0.667v12.363c0 0.63-0.222 1.166-0.665 1.608s-0.982 0.663-1.614 0.663h-17.19c-0.63 0-1.166-0.221-1.608-0.663s-0.663-0.978-0.663-1.608zM18.811 3.214c-0.49 0-0.902 0.165-1.236 0.495s-0.5 0.74-0.5 1.228c0 0.488 0.166 0.898 0.498 1.23s0.743 0.498 1.233 0.498c0.49 0 0.902-0.165 1.236-0.495s0.5-0.739 0.5-1.228c0-0.488-0.166-0.898-0.498-1.23s-0.743-0.498-1.233-0.498zM11.467 4.933c0 0.492 0.166 0.904 0.498 1.235s0.743 0.496 1.233 0.496c0.49 0 0.902-0.165 1.236-0.494s0.5-0.741 0.5-1.233c0-0.487-0.166-0.896-0.498-1.227s-0.743-0.497-1.233-0.497c-0.49 0-0.902 0.165-1.236 0.494s-0.5 0.738-0.5 1.225zM4.739 8.969v3.659h10.182v-3.659h-10.182zM14.921 27.27v-12.371h-7.715v12.371h7.715zM17.080 27.27h7.715v-12.371h-7.715v12.371zM27.27 12.628v-3.659h-10.19v3.659h10.19z"></path>
</symbol>
<symbol id="icon-quality" viewBox="0 0 32 32">
<path d="M0.256 2.388c-0.169-0.25-0.256-0.55-0.256-0.85 0-0.85 0.688-1.538 1.538-1.538h6.831c0.7 0 1.356 0.369 1.713 0.969l4.281 7.131c-3.013 0.381-5.706 1.787-7.713 3.869l-6.394-9.581zM31.737 2.388l-6.387 9.581c-2.006-2.081-4.7-3.488-7.713-3.869l4.281-7.131c0.362-0.6 1.012-0.969 1.712-0.969h6.831c0.85 0 1.537 0.688 1.537 1.538 0 0.3-0.087 0.6-0.256 0.85h-0.006zM5 21c0-2.917 1.159-5.715 3.222-7.778s4.861-3.222 7.778-3.222c2.917 0 5.715 1.159 7.778 3.222s3.222 4.861 3.222 7.778-1.159 5.715-3.222 7.778c-2.063 2.063-4.861 3.222-7.778 3.222s-5.715-1.159-7.778-3.222c-2.063-2.063-3.222-4.861-3.222-7.778zM16.525 15.069c-0.212-0.438-0.831-0.438-1.050 0l-1.4 2.837c-0.087 0.175-0.25 0.294-0.437 0.319l-3.137 0.456c-0.481 0.069-0.669 0.656-0.325 1l2.269 2.213c0.137 0.137 0.2 0.325 0.169 0.519l-0.537 3.119c-0.081 0.475 0.419 0.844 0.85 0.619l2.8-1.475c0.169-0.087 0.375-0.087 0.544 0l2.8 1.475c0.431 0.225 0.931-0.137 0.85-0.619l-0.538-3.119c-0.031-0.187 0.031-0.381 0.169-0.519l2.269-2.213c0.35-0.337 0.156-0.925-0.325-1l-3.131-0.456c-0.188-0.025-0.356-0.15-0.438-0.319l-1.4-2.837z"></path>
</symbol>
<symbol id="icon-save" viewBox="0 0 32 32">
<path d="M16 0c0.287 0 0.575 0.063 0.837 0.181l11.769 4.994c1.375 0.581 2.4 1.938 2.394 3.575-0.031 6.2-2.581 17.544-13.35 22.7-1.044 0.5-2.256 0.5-3.3 0-10.769-5.156-13.319-16.5-13.35-22.7-0.006-1.638 1.019-2.994 2.394-3.575l11.775-4.994c0.256-0.119 0.544-0.181 0.831-0.181zM16 4.175v23.625c8.625-4.175 10.944-13.419 11-18.962l-11-4.662z"></path>
</symbol>
<symbol id="icon-search" viewBox="0 0 32 32">
<path stroke-linejoin="miter" stroke-linecap="butt" stroke-miterlimit="4" stroke-width="1.3333" d="M12.503 4.498c2.227 0 4.099 0.778 5.655 2.344 1.557 1.568 2.329 3.443 2.329 5.664 0 0.891-0.14 1.74-0.418 2.548-0.278 0.807-0.695 1.568-1.258 2.285l-0.367 0.467 8.444 8.372c0.094 0.092 0.139 0.194 0.139 0.35-0 0.117-0.026 0.207-0.081 0.285l-0.064 0.075-0.003 0.003c-0.103 0.103-0.211 0.15-0.365 0.15s-0.247-0.046-0.332-0.137l-0.008-0.008-0.009-0.008-8.419-8.411-0.467 0.397c-0.52 0.442-1.123 0.802-1.811 1.079l-0.301 0.115c-0.809 0.287-1.679 0.434-2.616 0.434-2.268 0-4.163-0.78-5.727-2.345-1.566-1.568-2.342-3.442-2.342-5.658s0.777-4.089 2.345-5.658c1.568-1.568 3.447-2.345 5.674-2.345zM12.521 5.435c-1.84 0-3.44 0.61-4.767 1.82l-0.263 0.25c-1.375 1.375-2.070 3.052-2.070 4.995s0.696 3.619 2.070 4.994c1.376 1.376 3.066 2.070 5.030 2.070 1.948 0 3.623-0.695 4.984-2.073 1.359-1.375 2.044-3.051 2.044-4.991s-0.686-3.617-2.046-4.992c-1.362-1.377-3.036-2.073-4.983-2.073z"></path>
</symbol>
<symbol id="icon-shield" viewBox="0 0 32 32">
<path d="M13.136 21.333h5.729c0.321 0 0.59-0.109 0.808-0.327s0.327-0.488 0.327-0.808v-4.531c0-0.283-0.096-0.521-0.287-0.713s-0.429-0.287-0.713-0.287h-0.333v-1.333c0-0.733-0.261-1.361-0.783-1.883s-1.15-0.783-1.883-0.783c-0.733 0-1.361 0.261-1.883 0.783s-0.783 1.15-0.783 1.883v1.333h-0.333c-0.283 0-0.521 0.096-0.712 0.287s-0.288 0.429-0.288 0.713v4.531c0 0.321 0.109 0.59 0.327 0.808s0.488 0.327 0.808 0.327zM14.333 14.667v-1.333c0-0.444 0.167-0.817 0.5-1.117s0.722-0.45 1.167-0.45c0.445 0 0.833 0.15 1.167 0.45s0.5 0.673 0.5 1.116v1.333h-3.333zM16 29.391c-0.134 0-0.26-0.012-0.377-0.037s-0.232-0.062-0.344-0.112c-3.116-1.044-5.585-2.941-7.409-5.689s-2.736-5.745-2.736-8.99v-6.474c0-0.486 0.135-0.926 0.406-1.319s0.627-0.674 1.069-0.844l8.595-3.209c0.271-0.1 0.536-0.149 0.796-0.149s0.525 0.050 0.796 0.149l8.595 3.209c0.442 0.17 0.799 0.451 1.073 0.844s0.41 0.832 0.41 1.319v6.474c0 3.245-0.913 6.241-2.74 8.99s-4.297 4.645-7.413 5.689c-0.112 0.050-0.227 0.087-0.344 0.112s-0.243 0.037-0.377 0.037zM16 27.17c2.529-0.871 4.594-2.467 6.194-4.787s2.401-4.925 2.401-7.813v-6.48l-8.595-3.243-8.595 3.247v6.472c0 2.891 0.8 5.496 2.401 7.817s3.665 3.916 6.194 4.787z"></path>
</symbol>
<symbol id="icon-star" viewBox="0 0 32 32">
<path d="M16 0l4.702 9.528 10.515 1.528-7.609 7.416 1.796 10.472-9.405-4.944-9.405 4.944 1.796-10.472-7.608-7.416 10.515-1.528 4.702-9.528z"></path>
</symbol>
<symbol id="icon-sylwestr" viewBox="0 0 32 32">
<path d="M20 25.333v1.333c0 0.707-0.281 1.385-0.781 1.886s-1.178 0.781-1.886 0.781h-2.667c-0.707 0-1.385-0.281-1.886-0.781s-0.781-1.178-0.781-1.886v-1.333h8zM6.667 24c-1.187 0-1.783-1.436-0.943-2.276l3.807-3.809-1.952-0.649c-0.203-0.067-0.386-0.183-0.535-0.336s-0.259-0.34-0.321-0.544c-0.062-0.205-0.073-0.421-0.034-0.631s0.129-0.407 0.26-0.576l0.107-0.121 4.025-4.027-1.011-0.505c-0.176-0.088-0.331-0.214-0.452-0.369s-0.207-0.335-0.251-0.527c-0.044-0.192-0.044-0.392-0.002-0.584s0.127-0.373 0.248-0.529l0.111-0.125 5.333-5.333c0.25-0.25 0.589-0.39 0.943-0.39s0.693 0.14 0.943 0.39l5.333 5.333c0.149 0.149 0.261 0.332 0.326 0.533s0.081 0.414 0.047 0.623c-0.034 0.208-0.117 0.406-0.242 0.576s-0.289 0.308-0.478 0.403l-1.012 0.505 4.027 4.027c0.151 0.151 0.263 0.336 0.328 0.54s0.079 0.42 0.043 0.63c-0.037 0.21-0.123 0.409-0.252 0.579s-0.297 0.307-0.49 0.398l-0.151 0.061-1.953 0.649 3.808 3.809c0.804 0.803 0.293 2.152-0.791 2.268l-0.152 0.008h-18.667z"></path>
</symbol>
<symbol id="icon-takeaway" viewBox="0 0 32 32">
<path stroke-linejoin="miter" stroke-linecap="butt" stroke-miterlimit="4" stroke-width="1.3913" d="M28.522 32h-25.043v-32h25.043v32z"></path>
<path d="M27.287 8.687l-2.491-3.943c-0.222-0.352-0.617-0.57-1.039-0.57h-15.513c-0.422 0-0.817 0.217-1.039 0.57l-2.496 3.943c-1.287 2.035-0.148 4.865 2.257 5.191 0.174 0.022 0.352 0.035 0.526 0.035 1.135 0 2.143-0.496 2.835-1.261 0.691 0.765 1.7 1.261 2.835 1.261s2.143-0.496 2.835-1.261c0.691 0.765 1.7 1.261 2.835 1.261 1.139 0 2.143-0.496 2.835-1.261 0.696 0.765 1.7 1.261 2.835 1.261 0.178 0 0.352-0.013 0.526-0.035 2.413-0.322 3.557-3.152 2.265-5.191h-0.004zM25.204 15.257h-0.004c-0.23 0.030-0.465 0.048-0.704 0.048-0.539 0-1.057-0.083-1.539-0.23v5.796h-13.913v-5.8c-0.487 0.152-1.009 0.235-1.548 0.235-0.239 0-0.478-0.017-0.709-0.048h-0.004c-0.178-0.026-0.352-0.056-0.522-0.1v8.496c0 1.535 1.248 2.783 2.783 2.783h13.913c1.535 0 2.783-1.248 2.783-2.783v-8.496c-0.174 0.043-0.348 0.078-0.535 0.1z"></path>
</symbol>
<symbol id="icon-tie" viewBox="0 0 32 32">
<path d="M8 2.667l5.333 5.333-4 14.667 6.667 6.667 6.667-6.667-4-14.667 5.333-5.333h-16z"></path>
</symbol>
<symbol id="icon-tiktok" viewBox="0 0 32 32">
<path d="M12.022 26.518c2.642 0 4.784-1.912 4.784-4.835v-21.683h5.737c-0.322 3.954 3.568 7.774 7.858 7.687v5.452c-3.669 0-6.788-1.568-7.874-2.438v10.982c0 4.835-3.763 10.317-10.504 10.317s-10.422-5.482-10.422-10.317c0-6.823 7.145-10.781 11.877-9.813v5.553c-0.238-0.085-0.852-0.211-1.375-0.211-2.664-0.099-4.864 2.084-4.864 4.471 0 2.67 2.142 4.835 4.784 4.835z"></path>
</symbol>
<symbol id="icon-trust" viewBox="0 0 32 32">
<path d="M13.661 0.858c1.332-1.144 3.297-1.143 4.628 0.001 0.473 0.407 0.94 0.814 1.401 1.222 0.614-0.125 1.232-0.246 1.855-0.363 1.725-0.325 3.427 0.659 4.008 2.315 0.206 0.589 0.407 1.175 0.603 1.759 0.594 0.199 1.189 0.403 1.788 0.613 1.657 0.581 2.639 2.284 2.314 4.009-0.118 0.627-0.24 1.248-0.366 1.865 0.417 0.471 0.834 0.949 1.25 1.433 1.144 1.331 1.145 3.297 0.001 4.628-0.413 0.481-0.827 0.956-1.242 1.425 0.123 0.603 0.242 1.211 0.357 1.824 0.325 1.725-0.657 3.427-2.314 4.009-0.598 0.21-1.194 0.414-1.788 0.613-0.195 0.584-0.396 1.17-0.602 1.759-0.581 1.656-2.283 2.64-4.008 2.315-0.609-0.115-1.213-0.233-1.814-0.355-0.459 0.406-0.923 0.81-1.393 1.214-1.332 1.144-3.297 1.143-4.628-0.001-0.473-0.407-0.94-0.814-1.401-1.222-0.614 0.125-1.232 0.246-1.855 0.363-1.725 0.325-3.427-0.659-4.008-2.315-0.206-0.589-0.407-1.175-0.603-1.759-0.594-0.199-1.19-0.403-1.788-0.613-1.657-0.581-2.639-2.284-2.313-4.009 0.118-0.627 0.24-1.249 0.366-1.866-0.417-0.471-0.833-0.949-1.249-1.432-1.144-1.331-1.145-3.297-0.001-4.628 0.413-0.481 0.827-0.956 1.242-1.425-0.123-0.603-0.242-1.211-0.357-1.824-0.325-1.725 0.657-3.427 2.313-4.009 0.598-0.21 1.194-0.414 1.788-0.613 0.195-0.584 0.396-1.17 0.603-1.759 0.581-1.656 2.283-2.64 4.008-2.315 0.609 0.115 1.214 0.233 1.814 0.355 0.459-0.406 0.923-0.81 1.393-1.214zM22.021 12.526c0.738-0.669 0.793-1.81 0.124-2.547s-1.81-0.793-2.547-0.124c-1.769 1.604-3.116 3.064-4.257 4.844-0.714 1.115-1.328 2.325-1.915 3.731l-1.854-1.912c-0.693-0.715-1.835-0.733-2.55-0.039s-0.733 1.835-0.039 2.55l3.83 3.95c0.436 0.449 1.073 0.641 1.684 0.506s1.108-0.577 1.314-1.168c0.879-2.526 1.651-4.24 2.568-5.672 0.91-1.421 2.013-2.639 3.644-4.119z"></path>
</symbol>
<symbol id="icon-vector" viewBox="0 0 32 32">
<path d="M20.944 5.073c2.514 0 4.552 10.599 4.552 23.674h3.643c0-14.081-3.669-25.495-8.195-25.495-2.575 0-4.872 3.43-6.374 8.795-1.502-5.364-3.8-8.795-6.374-8.795-4.525 0-8.195 11.414-8.195 25.495h3.643c0-13.075 2.039-23.674 4.552-23.674s4.554 9.784 4.554 21.853h3.642c0-12.070 2.039-21.853 4.553-21.853zM30.962 26.927c0.494 0 0.908 0.391 0.908 0.906 0 0.523-0.414 0.914-0.908 0.914-0.496 0-0.913-0.392-0.913-0.914 0-0.515 0.418-0.906 0.913-0.906zM30.962 28.614c0.418 0 0.743-0.336 0.743-0.781 0-0.437-0.325-0.773-0.743-0.773-0.424 0-0.748 0.336-0.748 0.773-0 0.445 0.324 0.781 0.748 0.781zM30.608 27.304h0.411c0.251 0 0.369 0.1 0.369 0.304 0 0.192-0.12 0.273-0.277 0.289l0.302 0.471h-0.177l-0.288-0.458h-0.174v0.458h-0.165l-0-1.064zM30.774 27.777h0.172c0.145 0 0.278-0.007 0.278-0.176 0-0.141-0.121-0.164-0.232-0.164h-0.218l-0 0.34z"></path>
</symbol>
<symbol id="icon-visa" viewBox="0 0 32 32">
<path d="M9.775 19.974h-1.939l-1.454-5.662c-0.069-0.26-0.215-0.491-0.431-0.599-0.538-0.273-1.13-0.49-1.777-0.599v-0.218h3.123c0.431 0 0.754 0.327 0.808 0.708l0.754 4.084 1.938-4.791h1.885l-2.907 7.078zM13.761 19.974h-1.831l1.508-7.078h1.831l-1.508 7.078zM17.635 14.857c0.054-0.381 0.377-0.599 0.754-0.599 0.593-0.055 1.238 0.055 1.777 0.327l0.323-1.524c-0.539-0.218-1.131-0.327-1.669-0.327-1.777 0-3.070 0.98-3.070 2.341 0 1.035 0.916 1.579 1.562 1.906 0.699 0.327 0.969 0.544 0.915 0.871 0 0.49-0.539 0.708-1.077 0.708-0.647 0-1.293-0.163-1.885-0.436l-0.323 1.525c0.647 0.272 1.346 0.381 1.992 0.381 1.992 0.054 3.231-0.926 3.231-2.396 0-1.851-2.531-1.96-2.531-2.776zM26.573 19.974l-1.454-7.078h-1.561c-0.323 0-0.647 0.218-0.754 0.544l-2.692 6.533h1.885l0.376-1.034h2.316l0.215 1.034h1.669zM23.83 14.802l0.538 2.667h-1.508l0.97-2.667z"></path>
</symbol>
<symbol fill="none" xmlns="http://www.w3.org/2000/svg" viewBox="0 0 23 28" id="icon-card">
    <path d="M22.5 28H0V0H22.5V28Z" stroke="none"></path>
    <g clip-path="url(#clip0_158_4280)">
      <path d="M2.5 4.75C1.12109 4.75 0 5.87109 0 7.25V8.5H22.5V7.25C22.5 5.87109 21.3789 4.75 20 4.75H2.5ZM22.5 12.25H0V19.75C0 21.1289 1.12109 22.25 2.5 22.25H20C21.3789 22.25 22.5 21.1289 22.5 19.75V12.25ZM4.375 17.25H6.875C7.21875 17.25 7.5 17.5312 7.5 17.875C7.5 18.2188 7.21875 18.5 6.875 18.5H4.375C4.03125 18.5 3.75 18.2188 3.75 17.875C3.75 17.5312 4.03125 17.25 4.375 17.25ZM8.75 17.875C8.75 17.5312 9.03125 17.25 9.375 17.25H14.375C14.7188 17.25 15 17.5312 15 17.875C15 18.2188 14.7188 18.5 14.375 18.5H9.375C9.03125 18.5 8.75 18.2188 8.75 17.875Z" fill="#fff"></path>
    </g>
    <defs>
      <clipPath id="clip0_158_4280">
        <path d="M0 3.5H22.5V23.5H0V3.5Z" fill="white"></path>
      </clipPath>
    </defs>
  </symbol>
  <symbol fill="none" xmlns="http://www.w3.org/2000/svg" viewBox="0 0 25 28" id="icon-car">
    <path d="M25 28H0V0H25V28Z" stroke="none"></path>
    <g clip-path="url(#clip0_158_4261)">
      <path d="M1.875 3.5C0.839844 3.5 0 4.33984 0 5.375V17.875C0 18.9102 0.839844 19.75 1.875 19.75H2.5C2.5 21.8203 4.17969 23.5 6.25 23.5C8.32031 23.5 10 21.8203 10 19.75H15C15 21.8203 16.6797 23.5 18.75 23.5C20.8203 23.5 22.5 21.8203 22.5 19.75H23.75C24.4414 19.75 25 19.1914 25 18.5C25 17.8086 24.4414 17.25 23.75 17.25V14.75V13.5V12.7695C23.75 12.1055 23.4883 11.4688 23.0195 11L20 7.98047C19.5312 7.51172 18.8945 7.25 18.2305 7.25H16.25V5.375C16.25 4.33984 15.4102 3.5 14.375 3.5H1.875ZM16.25 9.75H18.2305L21.25 12.7695V13.5H16.25V9.75ZM4.375 19.75C4.375 19.2527 4.57254 18.7758 4.92417 18.4242C5.27581 18.0725 5.75272 17.875 6.25 17.875C6.74728 17.875 7.22419 18.0725 7.57583 18.4242C7.92746 18.7758 8.125 19.2527 8.125 19.75C8.125 20.2473 7.92746 20.7242 7.57583 21.0758C7.22419 21.4275 6.74728 21.625 6.25 21.625C5.75272 21.625 5.27581 21.4275 4.92417 21.0758C4.57254 20.7242 4.375 20.2473 4.375 19.75ZM18.75 17.875C19.2473 17.875 19.7242 18.0725 20.0758 18.4242C20.4275 18.7758 20.625 19.2527 20.625 19.75C20.625 20.2473 20.4275 20.7242 20.0758 21.0758C19.7242 21.4275 19.2473 21.625 18.75 21.625C18.2527 21.625 17.7758 21.4275 17.4242 21.0758C17.0725 20.7242 16.875 20.2473 16.875 19.75C16.875 19.2527 17.0725 18.7758 17.4242 18.4242C17.7758 18.0725 18.2527 17.875 18.75 17.875Z" fill="#fff"></path>
    </g>
    <defs>
      <clipPath id="clip0_158_4261">
        <path d="M0 3.5H25V23.5H0V3.5Z" fill="white"></path>
      </clipPath>
    </defs>
  </symbol>
  <symbol fill="none" xmlns="http://www.w3.org/2000/svg" viewBox="0 0 20 28" id="icon-money">
    <path d="M20 28H0V0H20V28Z" stroke="none"></path>
    <g clip-path="url(#clip0_158_4271)">
      <path d="M20 6.625C20 7.32812 19.4414 7.97656 18.5 8.5C17.3633 9.12891 15.668 9.57422 13.7227 9.70703C13.5781 9.63672 13.4336 9.57031 13.2812 9.51172C11.7422 8.86719 9.69531 8.5 7.5 8.5C7.17578 8.5 6.85938 8.50781 6.54297 8.52344L6.5 8.5C5.55859 7.97656 5 7.32812 5 6.625C5 4.89844 8.35938 3.5 12.5 3.5C16.6406 3.5 20 4.89844 20 6.625ZM6.27734 9.79297C6.67578 9.76563 7.08594 9.75 7.5 9.75C9.92969 9.75 12.0859 10.2305 13.457 10.9766C14.4258 11.5039 15 12.1602 15 12.875C15 13.0312 14.9727 13.1836 14.918 13.332C14.7383 13.8477 14.2539 14.3203 13.5508 14.7188C13.5469 14.7227 13.5391 14.7227 13.5352 14.7266C13.5234 14.7344 13.5117 14.7383 13.5 14.7461C12.1328 15.5039 9.95312 15.9961 7.5 15.9961C5.17188 15.9961 3.08984 15.5547 1.71094 14.8594C1.63672 14.8242 1.56641 14.7852 1.49609 14.7461C0.558594 14.2266 0 13.5781 0 12.875C0 11.5156 2.08594 10.3555 5 9.92969C5.41016 9.87109 5.83594 9.82422 6.27734 9.79297ZM16.25 12.875C16.25 12.0195 15.8359 11.3164 15.3086 10.7891C16.4141 10.6172 17.4258 10.3438 18.2852 9.98828C18.9219 9.72266 19.5156 9.39453 20 8.99219V10.375C20 11.1289 19.3555 11.8242 18.2891 12.3633C17.7188 12.6523 17.0234 12.8984 16.2422 13.0859C16.2461 13.0156 16.25 12.9492 16.25 12.8789V12.875ZM15 16.625C15 17.3281 14.4414 17.9766 13.5 18.5C13.4297 18.5391 13.3594 18.5742 13.2852 18.6133C11.9102 19.3086 9.82812 19.75 7.5 19.75C5.04688 19.75 2.86719 19.2578 1.5 18.5C0.558594 17.9766 0 17.3281 0 16.625V15.2422C0.488281 15.6445 1.07813 15.9727 1.71484 16.2383C3.25781 16.8828 5.30469 17.25 7.5 17.25C9.69531 17.25 11.7422 16.8828 13.2852 16.2383C13.5898 16.1133 13.8828 15.9688 14.1602 15.8125C14.3984 15.6797 14.6211 15.5312 14.832 15.375C14.8906 15.332 14.9453 15.2852 15 15.2422V15.375V15.5977V16.625ZM16.25 16.625V15.375V14.3633C16.9922 14.1992 17.6758 13.9922 18.2852 13.7383C18.9219 13.4727 19.5156 13.1445 20 12.7422V14.125C20 14.5352 19.8047 14.9453 19.418 15.332C18.7812 15.9688 17.6602 16.4922 16.2422 16.832C16.2461 16.7656 16.25 16.6953 16.25 16.625ZM7.5 21C9.69531 21 11.7422 20.6328 13.2852 19.9883C13.9219 19.7227 14.5156 19.3945 15 18.9922V20.375C15 22.1016 11.6406 23.5 7.5 23.5C3.35938 23.5 0 22.1016 0 20.375V18.9922C0.488281 19.3945 1.07813 19.7227 1.71484 19.9883C3.25781 20.6328 5.30469 21 7.5 21Z" fill="#fff"></path>
    </g>
    <defs>
      <clipPath id="clip0_158_4271">
        <path d="M0 3.5H20V23.5H0V3.5Z" fill="white"></path>
      </clipPath>
    </defs>
  </symbol>
  <symbol fill="none" xmlns="http://www.w3.org/2000/svg" viewBox="0 0 20 28" id="icon-time">
    <path d="M20 28H0V0H20V28Z" stroke="none"></path>
    <g clip-path="url(#clip0_158_4294)">
      <path d="M10 3.5C12.6522 3.5 15.1957 4.55357 17.0711 6.42893C18.9464 8.3043 20 10.8478 20 13.5C20 16.1522 18.9464 18.6957 17.0711 20.5711C15.1957 22.4464 12.6522 23.5 10 23.5C7.34784 23.5 4.8043 22.4464 2.92893 20.5711C1.05357 18.6957 0 16.1522 0 13.5C0 10.8478 1.05357 8.3043 2.92893 6.42893C4.8043 4.55357 7.34784 3.5 10 3.5ZM9.0625 8.1875V13.5C9.0625 13.8125 9.21875 14.1055 9.48047 14.2812L13.2305 16.7812C13.6602 17.0703 14.2422 16.9531 14.5312 16.5195C14.8203 16.0859 14.7031 15.5078 14.2695 15.2188L10.9375 13V8.1875C10.9375 7.66797 10.5195 7.25 10 7.25C9.48047 7.25 9.0625 7.66797 9.0625 8.1875Z" fill="#fff"></path>
    </g>
    <defs>
      <clipPath id="clip0_158_4294">
        <path d="M0 3.5H20V23.5H0V3.5Z" fill="white"></path>
      </clipPath>
    </defs>
  </symbol>
    <symbol fill="none" xmlns="http://www.w3.org/2000/svg" viewBox="0 0 18 16" id="icon-away">
    <g clip-path="url(#clip0_158_4493)">
      <path d="M17.1124 3.24375L15.3218 0.409375C15.1624 0.15625 14.8781 0 14.5749 0H3.42493C3.12181 0 2.83743 0.15625 2.67806 0.409375L0.884306 3.24375C-0.0406941 4.70625 0.778056 6.74062 2.50618 6.975C2.63118 6.99062 2.75931 7 2.88431 7C3.69993 7 4.42493 6.64375 4.92181 6.09375C5.41868 6.64375 6.14368 7 6.95931 7C7.77493 7 8.49993 6.64375 8.99681 6.09375C9.49368 6.64375 10.2187 7 11.0343 7C11.8531 7 12.5749 6.64375 13.0718 6.09375C13.5718 6.64375 14.2937 7 15.1093 7C15.2374 7 15.3624 6.99062 15.4874 6.975C17.2218 6.74375 18.0437 4.70938 17.1156 3.24375H17.1124ZM15.6156 7.96562H15.6124C15.4468 7.9875 15.2781 8 15.1062 8C14.7187 8 14.3468 7.94062 13.9999 7.83437V12H3.99993V7.83125C3.64993 7.94063 3.27493 8 2.88743 8C2.71556 8 2.54368 7.9875 2.37806 7.96562H2.37493C2.24681 7.94687 2.12181 7.925 1.99993 7.89375V12V14C1.99993 15.1031 2.89681 16 3.99993 16H13.9999C15.1031 16 15.9999 15.1031 15.9999 14V12V7.89375C15.8749 7.925 15.7499 7.95 15.6156 7.96562Z" fill="#2D2A2A"></path>
    </g>
    <defs>
      <clipPath id="clip0_158_4493">
        <path d="M0 0H18V16H0V0Z" fill="white"></path>
      </clipPath>
    </defs>
  </symbol>
  <symbol fill="none" xmlns="http://www.w3.org/2000/svg" viewBox="0 0 20 23" id="icon-dpd">
    <path d="M20 23H0V0H20V23Z" stroke="none"></path>
    <g clip-path="url(#clip0_158_4366)">
      <path d="M3.5 3C2.67188 3 2 3.67188 2 4.5V6H0.5C0.225 6 0 6.225 0 6.5C0 6.775 0.225 7 0.5 7H2H8.5C8.775 7 9 7.225 9 7.5C9 7.775 8.775 8 8.5 8H2H1.5C1.225 8 1 8.225 1 8.5C1 8.775 1.225 9 1.5 9H2H7.5C7.775 9 8 9.225 8 9.5C8 9.775 7.775 10 7.5 10H2H0.5C0.225 10 0 10.225 0 10.5C0 10.775 0.225 11 0.5 11H2H6.5C6.775 11 7 11.225 7 11.5C7 11.775 6.775 12 6.5 12H2V16C2 17.6562 3.34375 19 5 19C6.65625 19 8 17.6562 8 16H12C12 17.6562 13.3438 19 15 19C16.6562 19 18 17.6562 18 16H19C19.5531 16 20 15.5531 20 15C20 14.4469 19.5531 14 19 14V12V11V10.4156C19 9.88438 18.7906 9.375 18.4156 9L16 6.58437C15.625 6.20937 15.1156 6 14.5844 6H13V4.5C13 3.67188 12.3281 3 11.5 3H3.5ZM17 10.4156V11H13V8H14.5844L17 10.4156ZM5 14.5C5.39782 14.5 5.77936 14.658 6.06066 14.9393C6.34196 15.2206 6.5 15.6022 6.5 16C6.5 16.3978 6.34196 16.7794 6.06066 17.0607C5.77936 17.342 5.39782 17.5 5 17.5C4.60218 17.5 4.22064 17.342 3.93934 17.0607C3.65804 16.7794 3.5 16.3978 3.5 16C3.5 15.6022 3.65804 15.2206 3.93934 14.9393C4.22064 14.658 4.60218 14.5 5 14.5ZM13.5 16C13.5 15.6022 13.658 15.2206 13.9393 14.9393C14.2206 14.658 14.6022 14.5 15 14.5C15.3978 14.5 15.7794 14.658 16.0607 14.9393C16.342 15.2206 16.5 15.6022 16.5 16C16.5 16.3978 16.342 16.7794 16.0607 17.0607C15.7794 17.342 15.3978 17.5 15 17.5C14.6022 17.5 14.2206 17.342 13.9393 17.0607C13.658 16.7794 13.5 16.3978 13.5 16Z" fill="#2D2A2A"></path>
    </g>
    <defs>
      <clipPath id="clip0_158_4366">
        <path d="M0 3H20V19H0V3Z" fill="white"></path>
      </clipPath>
    </defs>
  </symbol>
  <symbol fill="none" xmlns="http://www.w3.org/2000/svg" viewBox="0 0 16 16" id="icon-firm">
    <g clip-path="url(#clip0_158_4455)">
      <g clip-path="url(#clip1_158_4455)">
        <path d="M5.75 1.5H10.25C10.3875 1.5 10.5 1.6125 10.5 1.75V3H5.5V1.75C5.5 1.6125 5.6125 1.5 5.75 1.5ZM4 1.75V3H2C0.896875 3 0 3.89687 0 5V8H6H10H16V5C16 3.89687 15.1031 3 14 3H12V1.75C12 0.784375 11.2156 0 10.25 0H5.75C4.78438 0 4 0.784375 4 1.75ZM16 9H10V10C10 10.5531 9.55313 11 9 11H7C6.44688 11 6 10.5531 6 10V9H0V13C0 14.1031 0.896875 15 2 15H14C15.1031 15 16 14.1031 16 13V9Z" fill="#2D2A2A"></path>
      </g>
    </g>
    <defs>
      <clipPath id="clip0_158_4455">
        <rect width="16" height="16" fill="white"></rect>
      </clipPath>
      <clipPath id="clip1_158_4455">
        <path d="M0 0H16V16H0V0Z" fill="white"></path>
      </clipPath>
    </defs>
  </symbol>
  <symbol fill="none" xmlns="http://www.w3.org/2000/svg" viewBox="0 0 16 16" id="icon-info">
    <g clip-path="url(#clip0_158_4389)">
      <g clip-path="url(#clip1_158_4389)">
        <path d="M8 16C10.1217 16 12.1566 15.1571 13.6569 13.6569C15.1571 12.1566 16 10.1217 16 8C16 5.87827 15.1571 3.84344 13.6569 2.34315C12.1566 0.842855 10.1217 0 8 0C5.87827 0 3.84344 0.842855 2.34315 2.34315C0.842855 3.84344 0 5.87827 0 8C0 10.1217 0.842855 12.1566 2.34315 13.6569C3.84344 15.1571 5.87827 16 8 16ZM6.75 10.5H7.5V8.5H6.75C6.33437 8.5 6 8.16562 6 7.75C6 7.33437 6.33437 7 6.75 7H8.25C8.66562 7 9 7.33437 9 7.75V10.5H9.25C9.66562 10.5 10 10.8344 10 11.25C10 11.6656 9.66562 12 9.25 12H6.75C6.33437 12 6 11.6656 6 11.25C6 10.8344 6.33437 10.5 6.75 10.5ZM8 4C8.26522 4 8.51957 4.10536 8.70711 4.29289C8.89464 4.48043 9 4.73478 9 5C9 5.26522 8.89464 5.51957 8.70711 5.70711C8.51957 5.89464 8.26522 6 8 6C7.73478 6 7.48043 5.89464 7.29289 5.70711C7.10536 5.51957 7 5.26522 7 5C7 4.73478 7.10536 4.48043 7.29289 4.29289C7.48043 4.10536 7.73478 4 8 4Z" fill="#2D2A2A"></path>
      </g>
    </g>
    <defs>
      <clipPath id="clip0_158_4389">
        <rect width="16" height="16" fill="white"></rect>
      </clipPath>
      <clipPath id="clip1_158_4389">
        <path d="M0 0H16V16H0V0Z" fill="white"></path>
      </clipPath>
    </defs>
  </symbol>
  <symbol fill="none" xmlns="http://www.w3.org/2000/svg" viewBox="0 0 16 16" id="icon-ok">
    <g clip-path="url(#clip0_158_4275)">
      <path d="M8 16C10.1217 16 12.1566 15.1571 13.6569 13.6569C15.1571 12.1566 16 10.1217 16 8C16 5.87827 15.1571 3.84344 13.6569 2.34315C12.1566 0.842855 10.1217 0 8 0C5.87827 0 3.84344 0.842855 2.34315 2.34315C0.842855 3.84344 0 5.87827 0 8C0 10.1217 0.842855 12.1566 2.34315 13.6569C3.84344 15.1571 5.87827 16 8 16ZM11.5312 6.53125L7.53125 10.5312C7.2375 10.825 6.7625 10.825 6.47188 10.5312L4.47188 8.53125C4.17813 8.2375 4.17813 7.7625 4.47188 7.47188C4.76562 7.18125 5.24062 7.17813 5.53125 7.47188L7 8.94063L10.4688 5.46875C10.7625 5.175 11.2375 5.175 11.5281 5.46875C11.8187 5.7625 11.8219 6.2375 11.5281 6.52812L11.5312 6.53125Z" fill="#2D2A2A"></path>
    </g>
    <defs>
      <clipPath id="clip0_158_4275">
        <path d="M0 0H16V16H0V0Z" fill="white"></path>
      </clipPath>
    </defs>
  </symbol>
</defs>
</svg>


